<?xml version="1.0" encoding="utf-8"?>
<!-- Generator: Adobe Illustrator 26.1.0, SVG Export Plug-In . SVG Version: 6.00 Build 0)  -->
<svg version="1.1" id="_x32_f049668-4cb1-495e-aa7b-e01b7d96bdeb"
	 xmlns="http://www.w3.org/2000/svg" xmlns:xlink="http://www.w3.org/1999/xlink" x="0px" y="0px" viewBox="0 0 1741 1741"
	 style="enable-background:new 0 0 1741 1741;" xml:space="preserve">
<style type="text/css">
	.st0{fill:url(#SVGID_1_);}
	.st1{fill:url(#SVGID_00000053537279243199328720000001439231182452863130_);}
	.st2{fill:url(#SVGID_00000170280556462563419880000005378315000470711949_);}
	.st3{fill:#FFFFFF;}
</style>
<g>
	
		<radialGradient id="SVGID_1_" cx="1296.6586" cy="35.0527" r="336.9075" gradientTransform="matrix(1 0 0 1 -488 1054)" gradientUnits="userSpaceOnUse">
		<stop  offset="0.16" style="stop-color:#EE757B"/>
		<stop  offset="0.72" style="stop-color:#E4242D"/>
	</radialGradient>
	<path class="st0" d="M1238.2,784.4c0.1-72-17.8-142.8-52.1-206.2l-0.6-1.1l-1.8-3.2C1109.4,440,966.4,349,802.9,349h-3.4
		c-233,1.9-430.4,195.2-432,432.6c0,1-0.1,1.9-0.1,2.9c0,57.3,11.3,114,33.4,166.8l1,2.3c0,0.1,0.1,0.2,0.1,0.3
		c66.3,156,221.3,265.9,401,265.9c3.8,0,7.5-0.1,11.2-0.2C1048.7,1213.5,1238.2,1020.4,1238.2,784.4z"/>
	
		<radialGradient id="SVGID_00000127011513442753629150000001979840628614967684_" cx="1290.8221" cy="-269.6865" r="480.2546" gradientTransform="matrix(1 0 0 1 -488 1054)" gradientUnits="userSpaceOnUse">
		<stop  offset="0.72" style="stop-color:#9F2024;stop-opacity:0"/>
		<stop  offset="1" style="stop-color:#9F2024"/>
	</radialGradient>
	<path style="fill:url(#SVGID_00000127011513442753629150000001979840628614967684_);" d="M1238.2,784.4
		c0.1-72-17.8-142.8-52.1-206.2l-0.6-1.1l-1.8-3.2C1109.4,440,966.4,349,802.9,349h-3.4c-233,1.9-430.4,195.2-432,432.6
		c0,1-0.1,1.9-0.1,2.9c0,57.3,11.3,114,33.4,166.8l1,2.3c0,0.1,0.1,0.2,0.1,0.3c66.3,156,221.3,265.9,401,265.9
		c3.8,0,7.5-0.1,11.2-0.2C1048.7,1213.5,1238.2,1020.4,1238.2,784.4z"/>
	
		<linearGradient id="SVGID_00000170261272676988546150000007903500146631260306_" gradientUnits="userSpaceOnUse" x1="1295.8733" y1="-137.7522" x2="1295.8733" y2="-660.788" gradientTransform="matrix(1 0 0 1 -488 1054)">
		<stop  offset="0.39" style="stop-color:#E31B2A;stop-opacity:0"/>
		<stop  offset="1" style="stop-color:#FCE8E2"/>
	</linearGradient>
	<path style="fill:url(#SVGID_00000170261272676988546150000007903500146631260306_);" d="M521,654.8
		c0,142.5,125.1,258.4,280.6,261.5h12.5c154.2-3,278.5-117,280.6-257.9l0,0v-7.1c-2.1-142.8-129.7-258-286.8-258l0,0
		C649.5,393.2,521,510.3,521,654.8"/>
	<path id="_x38_74f79dc-0f09-47a7-a44d-a433da37719a" class="st3" d="M525.2,729.6c21.5,0,41.1,12.3,50.3,31.7h37.1
		c-10.8-39.3-46.6-66.6-87.4-66.6c-50,0-90.5,40.5-90.5,90.5s40.6,90.5,90.5,90.5c40.8,0,76.5-27.2,87.4-66.6h-37.1
		c-9.3,19.4-28.8,31.7-50.3,31.7c-30.7,0-55.7-24.9-55.7-55.7c0,0,0,0,0,0C469.5,754.5,494.5,729.6,525.2,729.6L525.2,729.6z
		 M1182.4,764h-90.3v33.9h90.2C1182.2,796.1,1182.4,764,1182.4,764z M1134.6,626.2l-86.2,86.6l23.8,24.1l86.4-86.7L1134.6,626.2z
		 M1020.1,700.1l0.2-88.2h-34l-0.1,88.1C988.1,699.9,1020.1,700.1,1020.1,700.1L1020.1,700.1z M903.7,730.5
		c-4.6,0.7-9.1,1.9-13.5,3.7c-7.5,3-18.3,10.7-25.1,19.9v-17.8l-33.6-0.5v139.1h35.1l-0.1-66.2c0-11.2,1.4-19.4,4.2-24.7
		c5-9.4,17.2-19.3,31.8-19.3l4.3,0.1l6.4,0.5l-0.4-35.3C909.7,730,906.7,730.1,903.7,730.5L903.7,730.5z M771.3,818.1
		c-0.3,12.3-3.7,20.7-10.4,25.3c-6.3,4.5-13.9,6.9-21.7,6.9c-5,0-9.2-1.4-12.7-4.1c-3.5-2.8-5.2-7.4-5.2-13.6
		c0-6.3,2.9-12.2,8.5-15.5c3.4-2,8.9-3.7,16.6-5l8.2-1.6c3.3-0.5,6.5-1.4,9.7-2.5c2.5-1,4.8-2.2,7.1-3.6L771.3,818.1z M790,738.4
		c-11.9-6-25.5-9.1-40.8-9.1c-23.6,0-40.1,6.2-49.8,18.5c-6,7.8-9.5,17.9-10.3,30.1h35.3c0.9-5.4,2.6-9.7,5.1-12.8
		c3.6-4.3,9.7-6.4,18.4-6.4c7.7,0,13.5,1.1,17.5,3.3s6.1,6.1,6.1,11.8c0,4.7-2.7,8.2-7.9,10.4c-2.9,1.3-7.8,2.4-14.5,3.2l-12.5,1.6
		c-14.1,1.8-23.3,4.8-30.5,9c-13.3,7.8-19.9,20.2-19.9,37.4c0,13.3,4.1,22.7,12.3,29.9c8.2,7.3,16.1,9.6,28.7,9.6
		c29.2,0,45.5-14.3,45.5-14.3c0.2,2.7,0.1,11.4,0,14.3h34.7l0.5-101.9C807.9,756,801.9,744.5,790,738.4L790,738.4z M630.8,874.7
		h35.1V693.8h-35.1L630.8,874.7z M989.4,841.2c-21.3,0-38.5-17.2-38.5-38.5c0-21.3,17.2-38.5,38.5-38.6c21.3,0,38.5,17.2,38.5,38.5
		c0,0,0,0,0,0.1C1027.9,824,1010.7,841.2,989.4,841.2z M989.4,729.5c-40.4,0-73.2,32.7-73.2,73.1c0,0,0,0.1,0,0.1
		c0,40.4,32.8,73.2,73.2,73.2c0,0,0,0,0,0c40.4,0,73.2-32.8,73.2-73.2c0,0,0,0,0,0c0-40.4-32.7-73.2-73.1-73.2
		C989.5,729.5,989.5,729.5,989.4,729.5"/>
</g>
</svg>
