<svg width="65" height="49" viewBox="0 0 65 49" fill="none" xmlns="http://www.w3.org/2000/svg">
<path d="M60.6335 28.901C60.6335 18.8698 54.4735 10.286 45.7348 6.6985L40.6335 16.901V2.901C40.6335 2.37057 40.4228 1.86186 40.0478 1.48679C39.6727 1.11172 39.164 0.901001 38.6335 0.901001H26.6335C26.1031 0.901001 25.5944 1.11172 25.2193 1.48679C24.8443 1.86186 24.6335 2.37057 24.6335 2.901V16.901L19.5323 6.6985C10.7935 10.286 4.63354 18.8698 4.63354 28.901V36.901H60.6335V28.901ZM62.6335 40.901H2.63354C2.10311 40.901 1.5944 41.1117 1.21933 41.4868C0.844259 41.8619 0.633545 42.3706 0.633545 42.901L0.633545 46.901C0.633545 47.4314 0.844259 47.9401 1.21933 48.3152C1.5944 48.6903 2.10311 48.901 2.63354 48.901H62.6335C63.164 48.901 63.6727 48.6903 64.0478 48.3152C64.4228 47.9401 64.6335 47.4314 64.6335 46.901V42.901C64.6335 42.3706 64.4228 41.8619 64.0478 41.4868C63.6727 41.1117 63.164 40.901 62.6335 40.901Z" fill="white"/>
</svg>
