<svg width="72" height="63" viewBox="0 0 72 63" fill="none" xmlns="http://www.w3.org/2000/svg">
<path d="M36 0C16.1184 0 0 13.095 0 29.25C0 36.2194 3.01078 42.6094 8.01562 47.6353C6.25219 54.7102 0.379688 61.0312 0.309375 61.1016C0.158283 61.2612 0.0572439 61.4615 0.018736 61.6779C-0.0197719 61.8942 0.00593776 62.1172 0.09269 62.3191C0.179442 62.521 0.323437 62.6931 0.506893 62.8141C0.690349 62.9351 0.90523 62.9997 1.125 63C10.4428 63 17.4375 58.5352 20.8969 55.7747C25.7262 57.5848 30.8426 58.508 36 58.5C55.883 58.5 72 45.405 72 29.25C72 13.095 55.883 0 36 0ZM49.5 32.625C49.5 32.9234 49.3815 33.2095 49.1705 33.4205C48.9595 33.6315 48.6734 33.75 48.375 33.75H40.5V41.625C40.5 41.9234 40.3815 42.2095 40.1705 42.4205C39.9595 42.6315 39.6734 42.75 39.375 42.75H32.625C32.3266 42.75 32.0405 42.6315 31.8295 42.4205C31.6185 42.2095 31.5 41.9234 31.5 41.625V33.75H23.625C23.3266 33.75 23.0405 33.6315 22.8295 33.4205C22.6185 33.2095 22.5 32.9234 22.5 32.625V25.875C22.5 25.5766 22.6185 25.2905 22.8295 25.0795C23.0405 24.8685 23.3266 24.75 23.625 24.75H31.5V16.875C31.5 16.5766 31.6185 16.2905 31.8295 16.0795C32.0405 15.8685 32.3266 15.75 32.625 15.75H39.375C39.6734 15.75 39.9595 15.8685 40.1705 16.0795C40.3815 16.2905 40.5 16.5766 40.5 16.875V24.75H48.375C48.6734 24.75 48.9595 24.8685 49.1705 25.0795C49.3815 25.2905 49.5 25.5766 49.5 25.875V32.625Z" fill="white"/>
</svg>
