<svg width="46" height="64" viewBox="0 0 46 64" fill="none" xmlns="http://www.w3.org/2000/svg">
<path d="M23.0404 20.0819C28.1985 20.0819 32.3762 15.6375 32.3762 10.1502C32.3762 4.66294 28.1985 0.218491 23.0404 0.218491C17.8824 0.218491 13.7046 4.66294 13.7046 10.1502C13.7046 15.6375 17.8824 20.0819 23.0404 20.0819ZM16.8088 50.9696L19.7962 46.9969L12.6193 40.6406L7.26293 47.7666C5.93258 49.5295 5.89757 52.0373 7.16958 53.8498L12.7711 61.7952C13.693 63.0987 15.0933 63.7815 16.5054 63.7815C17.474 63.7815 18.4659 63.4587 19.3061 62.7883C21.3717 61.1496 21.7801 58.0335 20.2397 55.8361L16.8088 50.9696ZM33.4615 40.6406L26.2846 46.9969L29.2721 50.9696L25.8412 55.8361C24.3008 58.0335 24.7092 61.1496 26.7747 62.7883C27.615 63.4587 28.5952 63.7815 29.5755 63.7815C30.9992 63.7815 32.3996 63.0987 33.3098 61.7952L38.9113 53.8498C40.1833 52.0373 40.1483 49.5295 38.8179 47.7666L33.4615 40.6406ZM44.5944 18.2197C43.1124 15.9727 40.2066 15.4389 38.0944 17.0031L33.3565 20.5413C27.2065 25.1347 18.8627 25.1347 12.7244 20.5413L7.98646 17.0155C5.87423 15.4389 2.96847 15.9851 1.48641 18.2197C0.00435352 20.4668 0.517822 23.558 2.61838 25.1347L7.35629 28.6729C9.34015 30.1502 11.4874 31.2675 13.7046 32.1366V35.9727H32.3762V32.149C34.5935 31.28 36.7407 30.1626 38.7246 28.6853L43.4625 25.1471C45.5747 23.558 46.0765 20.4668 44.5944 18.2197Z" fill="white"/>
</svg>
