<svg width="41" height="69" viewBox="0 0 41 69" fill="none" xmlns="http://www.w3.org/2000/svg">
<g clip-path="url(#clip0_353_424)">
<path d="M40.2573 20.4398C40.2573 17.8466 39.7517 15.2789 38.7694 12.8831C37.7871 10.4873 36.3474 8.31042 34.5323 6.47676C32.7173 4.64311 30.5625 3.18857 28.1911 2.1962C25.8196 1.20383 23.2779 0.693069 20.7111 0.693069C19.8062 0.693108 18.9024 0.755952 18.006 0.881157C13.42 1.47332 9.19105 3.69095 6.0724 7.139C2.95376 10.587 1.14799 15.0416 0.976776 19.7091C0.805559 24.3766 2.28001 28.954 5.13748 32.6258C7.99494 36.2975 12.0498 38.8253 16.5799 39.7588V52.4479H7.79057V60.328H16.5847V68.2178H24.3835V60.328H33.1789V52.4479H24.3835V39.8375C28.8494 38.9737 32.8776 36.5643 35.7748 33.0238C38.6721 29.4834 40.2572 25.0335 40.2573 20.4398ZM20.6831 32.2746C18.3659 32.2746 16.1008 31.5804 14.1741 30.2799C12.2475 28.9793 10.7458 27.1308 9.85907 24.968C8.97233 22.8053 8.74032 20.4255 9.19237 18.1295C9.64443 15.8335 10.7603 13.7246 12.3987 12.0693C14.0372 10.414 16.1248 9.28671 18.3974 8.83002C20.6701 8.37332 23.0257 8.60771 25.1665 9.50355C27.3073 10.3994 29.1371 11.9164 30.4244 13.8629C31.7118 15.8093 32.3989 18.0977 32.3989 20.4386C32.395 23.5765 31.1594 26.5848 28.9631 28.8036C26.7668 31.0224 23.7891 32.2707 20.6831 32.2746Z" fill="white"/>
</g>
<defs>
<clipPath id="clip0_353_424">
<rect width="39.2871" height="67.5247" fill="white" transform="translate(0.970215 0.693069)"/>
</clipPath>
</defs>
</svg>
