<svg width="70" height="65" viewBox="0 0 70 65" fill="none" xmlns="http://www.w3.org/2000/svg">
<path d="M67.1925 8.97222H58.65L57.5822 7.09483C57.0483 5.75391 55.3131 4.68115 53.8448 4.68115H44.5016L40.8977 1.06055C40.4972 0.658268 39.9633 0.390076 39.4294 0.390076C39.4294 0.390076 39.4294 0.390076 39.296 0.390076C38.2282 0.390076 37.2938 1.46284 37.2938 2.53561V26.1365H22.3445H22.211C19.6749 26.1365 17.2723 26.9411 15.2703 28.282H11.6664C8.06249 28.282 5.25952 25.466 5.25952 21.8454C5.25952 20.7727 4.19171 19.6999 3.1239 19.6999C1.92264 19.6999 0.988281 20.7727 0.988281 21.8454C0.988281 27.7456 5.52642 32.439 11.2659 32.5731C10.1981 34.4505 9.53076 36.7301 9.53076 39.0097V60.4651C9.53076 62.8787 11.3995 64.7561 13.802 64.7561H22.3445C24.6135 64.7561 26.6157 62.8787 26.6157 60.4651V47.5918H39.4294V60.4651C39.4294 62.8787 41.2981 64.7561 43.7006 64.7561H52.2431C54.5122 64.7561 56.5144 62.8787 56.5144 60.4651V28.282H60.7856C65.4573 28.282 69.3281 24.5273 69.3281 19.6999V11.1178C69.3281 10.045 68.2603 8.97222 67.1925 8.97222ZM52.2431 60.4651H43.7006V43.3008H22.3445V60.4651H13.802V39.0097C13.802 34.3163 17.5393 30.5616 22.3445 30.4276H38.0947L52.2431 34.0482V60.4651ZM65.0568 19.6999C65.0568 22.1136 63.0547 23.991 60.7856 23.991H52.2431V29.6229L41.565 26.9411V7.76538L42.7663 8.97222H53.8448L55.9805 13.2633H65.0568V19.6999ZM52.2431 13.2633C52.2431 12.1905 51.1753 11.1178 50.1075 11.1178C48.9062 11.1178 47.9719 12.1905 47.9719 13.2633C47.9719 14.4701 48.9062 15.4088 50.1075 15.4088C51.1753 15.4088 52.2431 14.4701 52.2431 13.2633Z" fill="white"/>
</svg>
