<svg width="39" height="44" viewBox="0 0 39 44" fill="none" xmlns="http://www.w3.org/2000/svg">
<path d="M19.5087 27.1336C21.0966 27.1336 22.6302 26.9012 24.0801 26.4765V28.2386C20.8601 29.2474 18.5087 32.2236 18.5087 35.75V39.5141C18.5087 40.7208 19.4021 41.7101 20.5739 41.8712L20.5783 41.8718L23.2751 42.2301C24.1604 42.3767 25.0317 41.8083 25.2227 40.9074L25.2227 40.9074L25.225 40.8961L25.4949 39.5469L25.4949 39.5469L25.497 39.536C25.6695 38.6207 25.067 37.7494 24.1682 37.5636L24.1615 37.5623L23.2857 37.3876V35.9133C23.2857 34.735 23.7038 33.9453 24.2614 33.4422C24.8366 32.9233 25.6315 32.6469 26.4622 32.6486C27.294 32.6503 28.0967 32.931 28.6775 33.4407C29.2397 33.934 29.6429 34.682 29.6429 35.75V37.379L28.7745 37.5522C27.845 37.7256 27.2443 38.6268 27.4346 39.5427L27.7036 40.8875L27.705 40.8943C27.894 41.8066 28.7815 42.3995 29.6987 42.2134C29.7007 42.213 29.7028 42.2125 29.7048 42.2121L32.4981 41.6641L32.4993 41.6639C33.6112 41.4443 34.4286 40.474 34.4286 39.3336V35.75C34.4286 32.226 32.0794 29.2407 28.8571 28.2369V25.9014C34.039 26.6525 38 31.0177 38 36.3V40.15C38 41.7082 36.7101 43 35.1 43H3.9C2.28986 43 1 41.7082 1 40.15V36.3C1 31.4947 4.26927 27.4551 8.75871 26.1934V31.1606C6.71885 32.061 5.27656 34.0722 5.27656 36.4461C5.27656 39.666 7.92153 42.2586 11.1516 42.2586C14.3816 42.2586 17.0266 39.666 17.0266 36.4461C17.0266 34.0722 15.5843 32.061 13.5444 31.1606V26.0456C13.7607 26.1001 13.9736 26.1632 14.1841 26.2362L14.1853 26.2366C15.8531 26.8129 17.6435 27.1336 19.5087 27.1336ZM29.6429 11C29.6429 16.5114 25.1146 21 19.5 21C13.8854 21 9.35714 16.5114 9.35714 11C9.35714 5.48863 13.8854 1 19.5 1C25.1146 1 29.6429 5.48863 29.6429 11ZM11.1429 37.5C10.5251 37.5 10.0536 37.0161 10.0536 36.4375C10.0536 35.8589 10.5251 35.375 11.1429 35.375C11.7606 35.375 12.2321 35.8589 12.2321 36.4375C12.2321 37.0161 11.7606 37.5 11.1429 37.5Z" fill="#47BCCA" stroke="#47BCCA" stroke-width="2"/>
</svg>
