<svg width="39" height="39" viewBox="0 0 39 39" fill="none" xmlns="http://www.w3.org/2000/svg">
<path d="M26.464 11.9516C25.3237 4.93004 22.634 0 19.5039 0C16.3739 0 13.6842 4.93004 12.5439 11.9516H26.464ZM11.954 19.5C11.954 21.2456 12.0484 22.9204 12.2136 24.5323H26.7864C26.9516 22.9204 27.046 21.2456 27.046 19.5C27.046 17.7544 26.9516 16.0796 26.7864 14.4677H12.2136C12.0484 16.0796 11.954 17.7544 11.954 19.5ZM37.49 11.9516C35.2408 6.6127 30.6872 2.48468 25.0641 0.817742C26.9831 3.4754 28.3043 7.47762 28.9964 11.9516H37.49ZM13.9359 0.817742C8.32063 2.48468 3.75923 6.6127 1.51785 11.9516H10.0115C10.6957 7.47762 12.0169 3.4754 13.9359 0.817742ZM38.3315 14.4677H29.3109C29.4761 16.119 29.5705 17.8095 29.5705 19.5C29.5705 21.1905 29.4761 22.881 29.3109 24.5323H38.3237C38.7562 22.9204 39 21.2456 39 19.5C39 17.7544 38.7562 16.0796 38.3315 14.4677ZM9.43739 19.5C9.43739 17.8095 9.53176 16.119 9.69691 14.4677H0.676346C0.251664 16.0796 0 17.7544 0 19.5C0 21.2456 0.251664 22.9204 0.676346 24.5323H9.68905C9.53176 22.881 9.43739 21.1905 9.43739 19.5ZM12.5439 27.0484C13.6842 34.07 16.3739 39 19.5039 39C22.634 39 25.3237 34.07 26.464 27.0484H12.5439ZM25.072 38.1823C30.6872 36.5153 35.2486 32.3873 37.4979 27.0484H29.0042C28.3122 31.5224 26.9909 35.5246 25.072 38.1823ZM1.51785 27.0484C3.76709 32.3873 8.32063 36.5153 13.9437 38.1823C12.0248 35.5246 10.7036 31.5224 10.0115 27.0484H1.51785Z" fill="#47BCCA"/>
</svg>
