<svg width="56" height="45" viewBox="0 0 56 45" fill="none" xmlns="http://www.w3.org/2000/svg">
<path d="M19.6001 4.625H18.6001V5.625V8.38293C17.4788 7.90921 16.2721 7.59147 15.0001 7.48087V4.3585C15.0001 2.47252 16.4709 1 18.2001 1H51.8C53.5292 1 55 2.47252 55 4.3585V32.204C55 34.09 53.5292 35.5625 51.8 35.5625H31.1503C30.7149 34.2366 30.0617 33.0161 29.2317 31.9375H33.6001H34.6001V30.9375V26.3125H43.8V30.9375V31.9375H44.8H50.4H51.4V30.9375V5.625V4.625H50.4H19.6001ZM14.0001 32.6406C15.3832 32.6406 16.6817 32.379 17.8923 31.9841C17.9845 31.954 18.0884 31.9375 18.2001 31.9375C23.0719 31.9375 27.0261 35.9192 27.0001 40.8304C26.9908 42.5826 25.5542 44 23.8001 44H4.20013C2.44605 44 1.00943 42.5826 1.00013 40.8305C0.974162 35.9192 4.92827 31.9375 9.80012 31.9375C9.91135 31.9375 10.0144 31.9539 10.107 31.9841C11.3184 32.379 12.6169 32.6406 14.0001 32.6406ZM21.4001 19.6875C21.4001 23.7994 18.0829 27.125 14.0001 27.125C9.91735 27.125 6.60013 23.7994 6.60013 19.6875C6.60013 15.5756 9.91735 12.25 14.0001 12.25C18.0829 12.25 21.4001 15.5756 21.4001 19.6875Z" fill="#47BCCA" stroke="#47BCCA" stroke-width="2"/>
</svg>
