<svg width="61" height="36" viewBox="0 0 61 36" fill="none" xmlns="http://www.w3.org/2000/svg">
<path d="M23.4534 9C23.4534 13.4302 19.9091 17 15.5612 17C11.2133 17 7.6691 13.4302 7.6691 9C7.6691 4.56979 11.2133 1 15.5612 1C19.9091 1 23.4534 4.56979 23.4534 9ZM15.5612 22.375C17.4396 22.375 19.227 21.968 20.8422 21.25H21.7857C26.3768 21.25 30.1224 25.0237 30.1224 29.7V32.625C30.1224 33.9474 29.0652 35 27.7879 35H3.33455C2.05722 35 1 33.9474 1 32.625V29.7C1 25.0237 4.7457 21.25 9.33673 21.25H10.2811C11.9006 21.9674 13.6815 22.375 15.5612 22.375Z" fill="#47BCCA" stroke="#47BCCA" stroke-width="2"/>
<path d="M53.3309 9C53.3309 13.4302 49.7867 17 45.4388 17C41.0909 17 37.5467 13.4302 37.5467 9C37.5467 4.56979 41.0909 1 45.4388 1C49.7867 1 53.3309 4.56979 53.3309 9ZM45.4388 22.375C47.3172 22.375 49.1045 21.968 50.7197 21.25H51.6633C56.2543 21.25 60 25.0237 60 29.7V32.625C60 33.9474 58.9428 35 57.6655 35H33.2121C31.9348 35 30.8776 33.9474 30.8776 32.625V29.7C30.8776 25.0237 34.6233 21.25 39.2143 21.25H40.1586C41.7782 21.9674 43.5591 22.375 45.4388 22.375Z" fill="#47BCCA" stroke="#47BCCA" stroke-width="2"/>
</svg>
