<svg width="25" height="20" viewBox="0 0 25 20" fill="none" xmlns="http://www.w3.org/2000/svg">
<path d="M19.0634 7.49916H13.1259V9.68666C13.1259 11.2374 11.8642 12.4992 10.3134 12.4992C8.76261 12.4992 7.50089 11.2374 7.50089 9.68666V4.93666L4.96573 6.46009C4.21183 6.90931 3.75089 7.72572 3.75089 8.60072V10.4484L0.625891 12.2531C0.0282347 12.5968 -0.178797 13.3624 0.16886 13.9601L3.29386 19.3742C3.63761 19.9718 4.40323 20.1749 5.00089 19.8312L9.03995 17.4992H14.3759C15.7548 17.4992 16.8759 16.3781 16.8759 14.9992H17.5009C18.1923 14.9992 18.7509 14.4406 18.7509 13.7492V11.2492H19.0634C19.5829 11.2492 20.0009 10.8312 20.0009 10.3117V8.43666C20.0009 7.91712 19.5829 7.49916 19.0634 7.49916ZM24.8329 6.03822L21.7079 0.624155C21.3642 0.0264987 20.5985 -0.176626 20.0009 0.167124L15.9618 2.49916H11.9696C11.5009 2.49916 11.0439 2.63197 10.6454 2.87806L9.33683 3.69447C8.96964 3.92103 8.75089 4.32337 8.75089 4.75306V9.68666C8.75089 10.5499 9.45011 11.2492 10.3134 11.2492C11.1767 11.2492 11.8759 10.5499 11.8759 9.68666V6.24916H19.0634C20.2704 6.24916 21.2509 7.22962 21.2509 8.43666V9.54994L24.3759 7.74525C24.9735 7.39759 25.1767 6.63587 24.8329 6.03822Z" fill="white"/>
</svg>
