<svg width="61" height="55" viewBox="0 0 61 55" fill="none" xmlns="http://www.w3.org/2000/svg">
<path d="M23.496 49.0053C23.877 48.5352 24.2579 48.0813 24.7767 47.7571C26.7381 46.5494 29.3966 47.441 30.1666 49.751C30.7583 51.5341 29.8991 53.4388 28.2862 54.2007C26.5679 55.0112 24.4038 54.5087 23.3907 52.5391C23.261 52.2798 23.1313 52.1987 22.8476 52.1663C21.9804 52.0528 21.0969 51.9475 20.254 51.7286C19.0625 51.4206 17.8791 51.064 16.7282 50.6263C14.4669 49.7753 12.3838 48.5919 10.4629 47.1249C8.55818 45.6822 6.88852 44.0125 5.42959 42.1321C3.78423 39.9923 2.49551 37.6499 1.57962 35.1211C1.02037 33.5892 0.615108 32.0087 0.347637 30.3877C0.0396403 28.5073 -0.065727 26.6107 0.0396403 24.7141C0.104482 23.5307 0.25848 22.3555 0.493531 21.1883C0.785317 19.7537 1.18247 18.3434 1.6931 16.9736C2.13078 15.7903 2.68193 14.6555 3.28982 13.5451C4.96759 10.4895 7.18841 7.90393 9.89554 5.72364C12.0353 4.00534 14.402 2.66798 16.9714 1.68726C18.2358 1.20095 19.5407 0.820002 20.87 0.552532C22.0614 0.309376 23.2691 0.163483 24.493 0.0662208C26.0735 -0.063462 27.6459 0.00948463 29.2102 0.179693C30.8312 0.358007 32.4279 0.70653 33.9922 1.19284C36.0023 1.81694 37.907 2.67609 39.7064 3.75408C40.2575 4.08639 40.8006 4.43491 41.3112 4.83207C41.9921 5.3508 42.1217 6.24237 41.6678 6.93941C41.1896 7.68509 40.2575 7.90393 39.4795 7.43383C38.7419 6.98804 38.0205 6.50984 37.2748 6.08026C36.1401 5.42374 34.9405 4.8888 33.6924 4.49975C32.6387 4.16744 31.5688 3.86755 30.4827 3.62439C29.7613 3.46229 29.0157 3.38124 28.2781 3.33261C26.7867 3.22724 25.2873 3.21914 23.7878 3.36503C21.2671 3.61629 18.8599 4.28902 16.5661 5.3589C13.0322 7.00425 10.1063 9.38718 7.77198 12.5077C6.17526 14.6312 4.99191 16.9736 4.21381 19.5105C3.74371 21.0424 3.46003 22.6148 3.31413 24.2197C3.16013 25.9866 3.23308 27.7373 3.45192 29.488C3.56539 30.4201 3.77613 31.3441 4.02739 32.2438C4.50559 33.954 5.16211 35.5912 6.01316 37.1555C7.69093 40.2193 9.93607 42.7805 12.7567 44.8311C14.4507 46.0712 16.3067 47.0438 18.2763 47.7814C19.9054 48.3812 21.5751 48.7864 23.2934 48.9891C23.3745 49.0053 23.4312 49.0053 23.496 49.0053ZM26.6895 49.3133C25.7655 49.2728 25.0846 50.1076 25.0765 50.8776C25.0684 51.7448 25.7736 52.4662 26.6489 52.4824C27.5486 52.4986 28.2862 51.7854 28.2862 50.8938C28.2781 50.2211 27.7269 49.2971 26.6895 49.3133Z" fill="#0282A6"/>
<path d="M32.2738 36.9204C27.4593 39.3682 22.9204 39.0197 18.5436 35.9397C17.6359 36.3207 16.6794 36.3612 15.7311 36.0046C14.9611 35.7128 14.3452 35.2021 13.9156 34.497C13.0483 33.0624 13.2347 31.2387 14.41 30.0148C15.5771 28.7991 17.4494 28.5478 18.9165 29.4069C19.7513 29.8933 20.3025 30.6065 20.5699 31.5386C20.8293 32.4464 20.732 33.3298 20.3673 34.1809C23.4635 36.6368 28.6022 36.9042 32.2738 33.9458C35.986 30.9469 36.6587 26.0919 35.2971 22.9714C34.8351 22.9714 34.3731 23.012 33.9192 22.9633C32.6953 22.8417 31.7794 22.2095 31.1877 21.1478C30.0449 19.0809 31.0256 16.3495 33.595 15.7659C36.0427 15.2148 37.9799 17.0709 38.0528 19.1458C38.0771 19.8915 37.9637 20.5966 37.5503 21.2207C37.4125 21.4314 37.4287 21.6098 37.5098 21.8205C38.2392 23.6442 38.531 25.5327 38.3203 27.486C38.0528 29.95 37.1775 32.1708 35.5564 34.0674C35.1431 34.5618 34.6892 35.0238 34.2434 35.5182C36.5371 38.2902 38.8309 41.0622 41.1571 43.8828C41.6515 43.4694 42.1378 43.0966 42.5998 42.6913C44.1641 41.3053 45.4934 39.7167 46.6119 37.9498C47.7547 36.1423 48.6058 34.2052 49.1812 32.1465C49.9188 29.5204 50.1539 26.8376 49.8945 24.1224C49.7243 22.323 49.3109 20.5723 48.7111 18.8621C47.8682 16.4549 46.6281 14.2746 45.0314 12.2969C44.6504 11.8187 44.5126 11.3162 44.7315 10.7083C45.0395 9.84103 46.3687 9.36282 47.1549 10.3111C47.7547 11.0325 48.3059 11.7944 48.8327 12.5725C50.1457 14.5096 51.1022 16.6251 51.7992 18.854C52.2369 20.2481 52.5044 21.6908 52.6989 23.1416C52.9339 24.941 52.9501 26.7484 52.788 28.5478C52.4071 32.6895 51.0616 36.499 48.776 39.9761C47.6007 41.7592 46.2228 43.3722 44.6261 44.7906C43.9048 45.4309 43.1267 46.0145 42.3567 46.6142C42.1946 46.7439 41.9919 46.8331 41.7893 46.9141C41.1814 47.1573 40.6546 46.979 40.2412 46.5251C39.7225 45.9577 39.2443 45.3498 38.7499 44.7582C37.0478 42.7075 35.3457 40.665 33.6436 38.6144C33.2464 38.1443 32.8574 37.6661 32.4683 37.196C32.4035 37.0988 32.3306 37.0015 32.2738 36.9204ZM18.649 32.5518C18.649 31.7412 18.0411 30.9712 17.0523 30.9712C16.2256 30.9712 15.4961 31.5548 15.4556 32.5599C15.415 33.419 16.2093 34.1647 17.0928 34.1566C17.9682 34.1485 18.6571 33.4433 18.649 32.5518ZM32.825 19.3565C32.825 20.24 33.5139 20.9289 34.3974 20.937C35.2727 20.9451 35.986 20.24 35.9941 19.3646C36.0022 18.4812 35.2808 17.7598 34.3893 17.7598C33.5139 17.7679 32.825 18.473 32.825 19.3565Z" fill="#47BCCA"/>
<path d="M57.2459 26.319C57.254 25.1518 57.1892 23.8226 56.9866 22.5095C56.5246 19.5349 55.6573 16.69 54.2794 14.0072C53.2501 12.0133 52.0181 10.1572 50.5429 8.47136C50.3889 8.30115 50.243 8.12284 50.1134 7.92831C49.7162 7.32043 49.8459 6.46128 50.4132 6.00739C51.0779 5.47244 51.937 5.67507 52.3504 6.12086C53.5986 7.47442 54.6847 8.94146 55.6492 10.5058C56.5083 11.8917 57.2702 13.3426 57.8781 14.8582C58.4455 16.2685 58.9237 17.7194 59.2965 19.2026C59.9287 21.7477 60.18 24.3332 60.1638 26.9512C60.1557 28.4668 60.0179 29.9744 59.7747 31.4658C59.4181 33.5974 58.8264 35.6643 58.0321 37.6743C57.0433 40.195 55.714 42.5293 54.1092 44.7096C53.6553 45.3256 53.1285 45.9011 52.6503 46.5009C52.1153 47.1736 50.6726 47.2141 50.2349 46.1199C50.008 45.5526 50.0971 45.0095 50.5105 44.5232C50.9968 43.9477 51.475 43.3642 51.9208 42.7563C53.5256 40.5679 54.79 38.2093 55.6897 35.648C56.2085 34.1648 56.5894 32.641 56.865 31.0929C57.1324 29.5529 57.2459 28.0211 57.2459 26.319Z" fill="#0282A6"/>
<path d="M45.6961 25.6381C45.6718 28.0697 45.4286 29.9096 44.9099 31.717C44.2615 33.9622 43.2321 36.0047 41.838 37.877C41.4733 38.3633 40.987 38.5983 40.3872 38.4768C39.8117 38.3633 39.4227 38.0067 39.2444 37.4474C39.0985 36.9692 39.2282 36.5477 39.4956 36.1425C39.9495 35.4616 40.4196 34.797 40.8006 34.0837C41.5462 32.714 42.065 31.255 42.4054 29.7232C42.7863 27.9968 42.8674 26.2622 42.6891 24.5277C42.3892 21.5612 41.3517 18.8541 39.5767 16.4469C38.904 15.5391 39.2282 14.4368 40.2494 14.0883C40.8087 13.9018 41.4247 14.0883 41.8218 14.5827C42.6404 15.612 43.2726 16.7549 43.8481 17.9301C44.5857 19.4458 45.0882 21.0506 45.3638 22.7122C45.5583 23.855 45.6312 25.0303 45.6961 25.6381Z" fill="#0282A6"/>
</svg>
