<svg width="42" height="42" viewBox="0 0 42 42" fill="none" xmlns="http://www.w3.org/2000/svg">
<path d="M20.946 15.3308C17.8406 15.3308 15.3357 17.8357 15.3357 20.9412C15.3357 24.0466 17.8406 26.5515 20.946 26.5515C24.0515 26.5515 26.5564 24.0466 26.5564 20.9412C26.5564 17.8357 24.0515 15.3308 20.946 15.3308ZM20.946 24.5886C18.9392 24.5886 17.2986 22.9529 17.2986 20.9412C17.2986 18.9294 18.9343 17.2937 20.946 17.2937C22.9578 17.2937 24.5935 18.9294 24.5935 20.9412C24.5935 22.9529 22.9529 24.5886 20.946 24.5886V24.5886ZM28.0945 15.1013C28.0945 15.8289 27.5085 16.4099 26.7859 16.4099C26.0584 16.4099 25.4773 15.824 25.4773 15.1013C25.4773 14.3787 26.0632 13.7927 26.7859 13.7927C27.5085 13.7927 28.0945 14.3787 28.0945 15.1013ZM31.8103 16.4294C31.7273 14.6765 31.3269 13.1238 30.0427 11.8445C28.7634 10.5652 27.2107 10.1648 25.4578 10.0769C23.6511 9.97437 18.2361 9.97437 16.4294 10.0769C14.6814 10.1599 13.1287 10.5603 11.8445 11.8396C10.5603 13.1189 10.1648 14.6716 10.0769 16.4246C9.97437 18.2312 9.97437 23.6462 10.0769 25.4529C10.1599 27.2058 10.5603 28.7585 11.8445 30.0378C13.1287 31.3171 14.6765 31.7175 16.4294 31.8054C18.2361 31.908 23.6511 31.908 25.4578 31.8054C27.2107 31.7224 28.7634 31.322 30.0427 30.0378C31.322 28.7585 31.7224 27.2058 31.8103 25.4529C31.9128 23.6462 31.9128 18.2361 31.8103 16.4294V16.4294ZM29.4763 27.3914C29.0955 28.3484 28.3582 29.0857 27.3962 29.4714C25.9558 30.0427 22.5378 29.9109 20.946 29.9109C19.3542 29.9109 15.9314 30.0378 14.4958 29.4714C13.5388 29.0906 12.8015 28.3533 12.4158 27.3914C11.8445 25.9509 11.9763 22.533 11.9763 20.9412C11.9763 19.3494 11.8494 15.9265 12.4158 14.491C12.7966 13.5339 13.5339 12.7966 14.4958 12.4109C15.9363 11.8396 19.3542 11.9714 20.946 11.9714C22.5378 11.9714 25.9607 11.8445 27.3962 12.4109C28.3533 12.7917 29.0906 13.5291 29.4763 14.491C30.0476 15.9314 29.9158 19.3494 29.9158 20.9412C29.9158 22.533 30.0476 25.9558 29.4763 27.3914Z" fill="white"/>
</svg>
