<svg width="42" height="42" viewBox="0 0 42 42" fill="none" xmlns="http://www.w3.org/2000/svg">
<path d="M14.8965 30.8745H10.3613V16.27H14.8965V30.8745ZM12.6265 14.2778C11.1763 14.2778 10 13.0767 10 11.6265C10 10.9299 10.2767 10.2618 10.7693 9.76927C11.2618 9.27672 11.9299 9 12.6265 9C13.323 9 13.9911 9.27672 14.4837 9.76927C14.9762 10.2618 15.2529 10.9299 15.2529 11.6265C15.2529 13.0767 14.0762 14.2778 12.6265 14.2778ZM31.8701 30.8745H27.3447V23.7651C27.3447 22.0708 27.3105 19.8979 24.9868 19.8979C22.6289 19.8979 22.2676 21.7388 22.2676 23.6431V30.8745H17.7373V16.27H22.0869V18.2622H22.1504C22.7559 17.1147 24.2349 15.9038 26.4414 15.9038C31.0313 15.9038 31.875 18.9263 31.875 22.8521V30.8745H31.8701Z" fill="white"/>
</svg>
