<svg width="244" height="55" viewBox="0 0 244 55" fill="none" xmlns="http://www.w3.org/2000/svg">
<path d="M23.496 49.0053C23.877 48.5352 24.2579 48.0813 24.7767 47.7571C26.7381 46.5494 29.3966 47.441 30.1666 49.751C30.7583 51.5341 29.8991 53.4388 28.2862 54.2007C26.5679 55.0112 24.4038 54.5087 23.3907 52.5391C23.261 52.2798 23.1313 52.1987 22.8476 52.1663C21.9804 52.0528 21.0969 51.9475 20.254 51.7286C19.0625 51.4206 17.8791 51.064 16.7282 50.6263C14.4669 49.7753 12.3838 48.5919 10.4629 47.1249C8.55818 45.6822 6.88852 44.0125 5.42959 42.1321C3.78423 39.9923 2.49551 37.6499 1.57962 35.1211C1.02037 33.5892 0.615108 32.0087 0.347637 30.3877C0.0396403 28.5073 -0.065727 26.6107 0.0396403 24.7141C0.104482 23.5307 0.25848 22.3555 0.493531 21.1883C0.785317 19.7537 1.18247 18.3434 1.6931 16.9736C2.13078 15.7903 2.68193 14.6555 3.28982 13.5451C4.96759 10.4895 7.18841 7.90393 9.89554 5.72364C12.0353 4.00534 14.402 2.66798 16.9714 1.68726C18.2358 1.20095 19.5407 0.820002 20.87 0.552532C22.0614 0.309376 23.2691 0.163483 24.493 0.0662208C26.0735 -0.063462 27.6459 0.00948463 29.2102 0.179693C30.8312 0.358007 32.4279 0.70653 33.9922 1.19284C36.0023 1.81694 37.907 2.67609 39.7064 3.75408C40.2575 4.08639 40.8006 4.43491 41.3112 4.83207C41.9921 5.3508 42.1217 6.24237 41.6679 6.93941C41.1896 7.68509 40.2575 7.90393 39.4795 7.43383C38.7419 6.98804 38.0205 6.50984 37.2748 6.08026C36.1401 5.42374 34.9405 4.8888 33.6924 4.49975C32.6387 4.16744 31.5688 3.86755 30.4827 3.62439C29.7613 3.46229 29.0157 3.38124 28.2781 3.33261C26.7867 3.22724 25.2873 3.21914 23.7878 3.36503C21.2671 3.61629 18.8599 4.28902 16.5661 5.3589C13.0322 7.00425 10.1063 9.38718 7.77198 12.5077C6.17526 14.6312 4.99191 16.9736 4.21381 19.5105C3.74371 21.0424 3.46003 22.6148 3.31413 24.2197C3.16013 25.9866 3.23308 27.7373 3.45192 29.488C3.56539 30.4201 3.77613 31.3441 4.02739 32.2438C4.50559 33.954 5.16211 35.5912 6.01316 37.1555C7.69093 40.2193 9.93607 42.7805 12.7567 44.8311C14.4507 46.0712 16.3067 47.0438 18.2763 47.7814C19.9054 48.3812 21.5751 48.7864 23.2934 48.9891C23.3745 49.0053 23.4312 49.0053 23.496 49.0053ZM26.6895 49.3133C25.7655 49.2728 25.0847 50.1076 25.0765 50.8776C25.0684 51.7448 25.7736 52.4662 26.6489 52.4824C27.5486 52.4986 28.2862 51.7854 28.2862 50.8938C28.2781 50.2211 27.7269 49.2971 26.6895 49.3133Z" fill="#0282A6"/>
<path d="M32.2738 36.9204C27.4593 39.3682 22.9204 39.0197 18.5436 35.9397C17.6359 36.3207 16.6794 36.3612 15.7311 36.0046C14.9611 35.7128 14.3452 35.2021 13.9156 34.497C13.0483 33.0624 13.2347 31.2387 14.41 30.0148C15.5771 28.7991 17.4494 28.5478 18.9165 29.4069C19.7513 29.8933 20.3025 30.6065 20.5699 31.5386C20.8293 32.4464 20.732 33.3298 20.3673 34.1809C23.4635 36.6368 28.6022 36.9042 32.2738 33.9458C35.986 30.9469 36.6587 26.0919 35.2971 22.9714C34.8351 22.9714 34.3731 23.012 33.9192 22.9633C32.6953 22.8417 31.7794 22.2095 31.1877 21.1478C30.0449 19.0809 31.0256 16.3495 33.595 15.7659C36.0427 15.2148 37.9799 17.0709 38.0528 19.1458C38.0771 19.8915 37.9637 20.5966 37.5503 21.2207C37.4125 21.4314 37.4287 21.6098 37.5098 21.8205C38.2392 23.6442 38.531 25.5327 38.3203 27.486C38.0528 29.95 37.1775 32.1708 35.5564 34.0674C35.1431 34.5618 34.6892 35.0238 34.2434 35.5182C36.5371 38.2902 38.8309 41.0622 41.1571 43.8828C41.6515 43.4694 42.1378 43.0966 42.5998 42.6913C44.1641 41.3053 45.4934 39.7167 46.6119 37.9498C47.7547 36.1423 48.6058 34.2052 49.1812 32.1465C49.9188 29.5204 50.1539 26.8376 49.8945 24.1224C49.7243 22.323 49.3109 20.5723 48.7111 18.8621C47.8682 16.4549 46.6281 14.2746 45.0314 12.2969C44.6504 11.8187 44.5126 11.3162 44.7315 10.7083C45.0395 9.84103 46.3687 9.36282 47.1549 10.3111C47.7547 11.0325 48.3059 11.7944 48.8327 12.5725C50.1457 14.5096 51.1022 16.6251 51.7992 18.854C52.2369 20.2481 52.5044 21.6908 52.6989 23.1416C52.9339 24.941 52.9501 26.7484 52.788 28.5478C52.4071 32.6895 51.0616 36.499 48.776 39.9761C47.6007 41.7592 46.2228 43.3722 44.6261 44.7906C43.9048 45.4309 43.1267 46.0145 42.3567 46.6142C42.1946 46.7439 41.9919 46.8331 41.7893 46.9141C41.1814 47.1573 40.6546 46.979 40.2412 46.5251C39.7225 45.9577 39.2443 45.3498 38.7499 44.7582C37.0478 42.7075 35.3457 40.665 33.6436 38.6144C33.2464 38.1443 32.8574 37.6661 32.4683 37.196C32.4035 37.0988 32.3306 37.0015 32.2738 36.9204ZM18.649 32.5518C18.649 31.7412 18.0411 30.9712 17.0523 30.9712C16.2256 30.9712 15.4961 31.5548 15.4556 32.5599C15.415 33.419 16.2093 34.1647 17.0928 34.1566C17.9682 34.1485 18.6571 33.4433 18.649 32.5518ZM32.825 19.3565C32.825 20.24 33.5139 20.9289 34.3974 20.937C35.2727 20.9451 35.986 20.24 35.9941 19.3646C36.0022 18.4812 35.2808 17.7598 34.3893 17.7598C33.5139 17.7679 32.825 18.473 32.825 19.3565Z" fill="#47BCCA"/>
<path d="M169.316 31.5629C168.1 31.5629 166.901 31.5629 165.645 31.5629C165.636 31.3765 165.628 31.1982 165.628 31.0199C165.628 28.7829 165.628 26.5458 165.62 24.3007C165.62 23.7496 165.604 23.1903 165.547 22.6392C165.45 21.7962 165.199 20.9938 164.494 20.4508C163.578 19.7456 162.556 19.697 161.527 20.1752C160.311 20.7506 159.752 21.7881 159.622 23.0768C159.574 23.5794 159.598 24.0981 159.598 24.6006C159.598 26.7485 159.598 28.8882 159.598 31.0361C159.598 31.1982 159.598 31.3684 159.598 31.5467C158.326 31.5467 157.118 31.5467 155.853 31.5467C155.853 31.336 155.853 31.1577 155.853 30.9713C155.853 28.5154 155.845 26.0595 155.853 23.6037C155.862 22.7364 155.708 21.9178 155.254 21.1721C154.087 19.2512 151.339 19.4538 150.285 21.237C149.848 21.9745 149.661 22.7688 149.669 23.6199C149.677 26.0757 149.669 28.5316 149.669 30.9875C149.669 31.1658 149.669 31.3522 149.669 31.5548C148.397 31.5548 147.181 31.5548 145.949 31.5548C145.949 26.5783 145.949 21.6341 145.949 16.69C146.297 16.6008 148.721 16.5765 149.369 16.6575C149.45 17.1682 149.54 17.695 149.637 18.3191C150.075 17.7517 150.496 17.2492 151.088 16.9412C151.696 16.6251 152.344 16.4468 153.025 16.3901C153.689 16.3333 154.346 16.3739 155.002 16.5279C155.675 16.6819 156.275 16.9898 156.802 17.4356C157.321 17.8733 157.677 18.4245 157.985 19.0729C158.18 18.8297 158.35 18.6028 158.528 18.392C159.16 17.6545 159.89 17.0547 160.822 16.7467C161.438 16.5441 162.078 16.4387 162.735 16.4306C163.837 16.4144 164.915 16.5197 165.944 16.9655C167.46 17.6302 168.384 18.7973 168.887 20.3292C169.195 21.2775 169.324 22.2582 169.324 23.247C169.332 25.8893 169.324 28.5235 169.324 31.1658C169.34 31.2955 169.332 31.4171 169.316 31.5629Z" fill="#0282A6"/>
<path d="M89.9584 31.5711C88.7102 31.5711 87.5107 31.5711 86.2544 31.5711C86.2544 31.3685 86.2544 31.1901 86.2544 31.0037C86.2463 28.3776 86.2463 25.7516 86.2382 23.1336C86.2382 22.4122 86.0436 21.7314 85.6789 21.1073C85.1034 20.1104 83.9282 19.697 82.834 19.9483C81.4885 20.2563 80.7023 21.1478 80.3538 22.4609C80.2322 22.9148 80.1998 23.3686 80.1998 23.8306C80.2079 26.2217 80.1998 28.6127 80.1998 31.0118C80.1998 31.182 80.1998 31.3441 80.1998 31.5792C78.9759 31.6035 77.7764 31.5873 76.5282 31.5873C76.5201 31.3928 76.5119 31.2307 76.5119 31.0686C76.5119 28.6127 76.5119 26.1568 76.5119 23.7091C76.5119 22.9148 76.3742 22.1448 76.0094 21.4315C74.9152 19.2512 72.0622 19.4701 71.0085 21.1154C70.5546 21.8206 70.2791 22.5743 70.2791 23.4173C70.2791 25.9299 70.2709 28.4506 70.2709 30.9632C70.2709 31.1496 70.2709 31.3279 70.2709 31.5062C69.9224 31.6197 67.4098 31.6602 66.6155 31.5711C66.5264 31.2388 66.4939 17.2817 66.5912 16.6657C67.7016 16.6657 68.8201 16.6657 69.9792 16.6657C70.0683 17.2006 70.1575 17.7193 70.2547 18.3515C71.3733 16.6981 72.9376 16.3009 74.6883 16.4063C76.4876 16.5198 77.7926 17.387 78.6031 19.0729C78.7166 18.927 78.8057 18.8297 78.8868 18.7325C79.5514 17.8571 80.3457 17.1439 81.3994 16.7791C82.0397 16.5522 82.7124 16.4549 83.4014 16.4468C84.4875 16.4387 85.5492 16.536 86.5624 16.9818C88.0456 17.6302 88.9534 18.7649 89.4802 20.2563C89.845 21.2856 89.9585 22.3636 89.9747 23.4416C90.0071 26.019 89.9828 28.5965 89.9828 31.1739C89.9828 31.2874 89.9665 31.409 89.9584 31.5711Z" fill="#47BCCA"/>
<path d="M120.734 18.4327C120.734 15.7661 120.734 13.1157 120.734 10.4329C121.998 10.4329 123.206 10.4329 124.446 10.4329C124.446 17.4844 124.446 24.5115 124.446 31.5712C123.303 31.5712 122.177 31.5712 121.001 31.5712C120.928 30.9552 120.855 30.3473 120.774 29.6745C120.661 29.7556 120.572 29.8042 120.515 29.8772C119.923 30.6877 119.129 31.2307 118.197 31.5631C117.581 31.7819 116.941 31.8792 116.292 31.9035C114.606 31.9602 113.01 31.6603 111.567 30.7363C110.108 29.7961 109.152 28.4993 108.641 26.8377C108.236 25.5247 108.195 24.1873 108.325 22.85C108.455 21.537 108.835 20.2806 109.622 19.1946C110.562 17.8977 111.794 17.0305 113.342 16.6252C114.104 16.4226 114.874 16.2848 115.668 16.2848C117.03 16.2848 118.294 16.6252 119.437 17.3628C119.875 17.6465 120.256 18.0355 120.734 18.4327ZM116.187 28.4669C118.602 28.4912 120.499 26.6999 120.507 24.1468C120.523 21.5694 118.659 19.7457 116.203 19.7457C113.723 19.7376 111.988 21.4235 111.964 24.0658C111.94 26.6837 113.804 28.4912 116.187 28.4669Z" fill="#47BCCA"/>
<path d="M183.598 18.5216C183.654 17.8732 183.703 17.2897 183.76 16.6737C184.935 16.6737 186.086 16.6737 187.237 16.6737C187.326 17.0141 187.35 30.9469 187.269 31.5223C186.937 31.6196 184.303 31.6358 183.792 31.5386C183.743 30.9226 183.687 30.2985 183.622 29.569C183.492 29.7068 183.411 29.7878 183.346 29.8689C182.657 30.7686 181.758 31.344 180.688 31.6845C179.804 31.9681 178.913 32.0897 177.997 32.0168C175.606 31.8141 173.588 30.9145 172.258 28.8071C171.691 27.9074 171.367 26.9267 171.188 25.8811C171.026 24.9247 170.986 23.9764 171.091 23.02C171.261 21.4233 171.764 19.9563 172.842 18.7243C173.758 17.6787 174.893 16.9817 176.238 16.6169C177.186 16.3576 178.143 16.2198 179.115 16.2765C180.85 16.39 182.357 16.9735 183.435 18.4244C183.46 18.4487 183.492 18.4568 183.598 18.5216ZM179.188 28.6288C180.202 28.645 181.117 28.3694 181.904 27.7453C183.411 26.5458 183.946 24.3168 183.265 22.4527C182.617 20.6776 181.336 19.6969 179.448 19.6158C177.665 19.5348 176.23 20.1832 175.314 21.7799C174.933 22.4526 174.787 23.1983 174.771 23.9521C174.747 24.9409 174.933 25.8892 175.492 26.7241C176.368 28.0452 177.648 28.5964 179.188 28.6288Z" fill="#0282A6"/>
<path d="M107.336 25.4354C105.359 25.4354 103.43 25.4354 101.509 25.4354C99.5796 25.4354 97.6506 25.4354 95.6891 25.4354C95.6972 25.9217 95.8755 26.3188 96.0944 26.6998C96.6293 27.6076 97.456 28.1182 98.4368 28.3857C100.09 28.8315 101.679 28.5802 103.203 27.8426C103.519 27.6886 103.794 27.4617 104.143 27.2347C104.897 27.9804 105.675 28.7423 106.461 29.5204C106.388 29.6096 106.339 29.6825 106.274 29.7392C105.148 30.7524 103.835 31.3684 102.36 31.7007C100.966 32.0087 99.5715 32.0411 98.1774 31.8223C96.5239 31.5548 95.0488 30.874 93.8735 29.6582C93.0792 28.8396 92.5281 27.8588 92.2039 26.7646C91.8472 25.557 91.7176 24.3169 91.8553 23.0606C92.0255 21.5611 92.4956 20.1832 93.444 18.9837C94.3598 17.8327 95.527 17.0546 96.9373 16.6007C98.3962 16.1306 99.8876 16.082 101.379 16.2927C103.073 16.5278 104.572 17.2086 105.699 18.5622C106.347 19.3403 106.769 20.2319 107.044 21.2207C107.417 22.5905 107.393 23.9683 107.336 25.4354ZM103.713 22.3554C103.721 22.25 103.738 22.1852 103.721 22.1285C103.494 21.091 102.943 20.3048 101.938 19.8752C100.82 19.3889 99.6687 19.3646 98.5016 19.6564C97.2372 19.9725 96.3537 20.7425 95.8512 21.9502C95.8026 22.0717 95.7864 22.2014 95.7458 22.3554C98.4368 22.3554 101.055 22.3554 103.713 22.3554Z" fill="#47BCCA"/>
<path d="M57.2459 26.319C57.254 25.1518 57.1892 23.8226 56.9866 22.5095C56.5246 19.5349 55.6573 16.69 54.2794 14.0072C53.2501 12.0133 52.0181 10.1572 50.5429 8.47136C50.3889 8.30115 50.243 8.12284 50.1134 7.92831C49.7162 7.32043 49.8459 6.46128 50.4132 6.00739C51.0779 5.47244 51.937 5.67507 52.3504 6.12086C53.5986 7.47442 54.6847 8.94146 55.6492 10.5058C56.5083 11.8917 57.2702 13.3426 57.8781 14.8582C58.4455 16.2685 58.9237 17.7194 59.2965 19.2026C59.9287 21.7477 60.18 24.3332 60.1638 26.9512C60.1557 28.4668 60.0179 29.9744 59.7747 31.4658C59.4181 33.5974 58.8264 35.6642 58.0321 37.6743C57.0433 40.195 55.714 42.5293 54.1092 44.7096C53.6553 45.3256 53.1285 45.9011 52.6503 46.5009C52.1153 47.1736 50.6726 47.2141 50.2349 46.1199C50.008 45.5526 50.0971 45.0095 50.5105 44.5232C50.9968 43.9478 51.475 43.3642 51.9208 42.7563C53.5256 40.5679 54.79 38.2093 55.6897 35.648C56.2085 34.1648 56.5894 32.641 56.865 31.0929C57.1324 29.5529 57.2459 28.0211 57.2459 26.319Z" fill="#0282A6"/>
<path d="M144.077 18.2219C143.396 19.0324 142.731 19.8105 142.091 20.5724C141.572 20.2725 141.102 19.9483 140.592 19.7051C139.765 19.3161 138.865 19.2756 137.966 19.308C137.423 19.3323 136.896 19.4052 136.401 19.6484C135.939 19.8753 135.639 20.2158 135.623 20.7588C135.615 21.3343 135.923 21.7071 136.409 21.9584C136.969 22.2502 137.577 22.3474 138.193 22.3717C139.149 22.4123 140.097 22.5338 141.029 22.7527C141.913 22.9634 142.723 23.3119 143.428 23.8874C144.304 24.6088 144.685 25.5814 144.782 26.6756C145.009 29.3017 143.291 31.0362 141.2 31.6846C139.7 32.1466 138.184 32.1466 136.661 32.0007C134.675 31.8062 132.973 30.9713 131.563 29.5448C131.53 29.5124 131.514 29.4719 131.457 29.3908C132.041 28.5479 132.641 27.6887 133.232 26.8296C133.662 27.1295 134.059 27.4456 134.497 27.6968C135.615 28.3453 136.831 28.7343 138.12 28.8397C138.873 28.8964 139.595 28.7991 140.259 28.402C140.9 28.021 141.191 27.4132 141.07 26.781C140.981 26.3433 140.705 26.0758 140.316 25.9137C139.692 25.6543 139.044 25.5652 138.379 25.5247C137.017 25.4436 135.688 25.2086 134.44 24.6088C133.435 24.1306 132.616 23.4416 132.235 22.3636C131.692 20.8399 131.887 19.4215 132.949 18.1652C133.621 17.379 134.505 16.9332 135.469 16.609C136.896 16.1389 138.355 16.1145 139.822 16.2685C141.378 16.4225 142.772 16.998 143.955 18.0436C144.004 18.1003 144.02 18.1489 144.077 18.2219Z" fill="#0282A6"/>
<path d="M204.371 19.8834C203.423 19.8834 202.548 19.8834 201.624 19.8834C201.575 18.8135 201.608 17.7679 201.608 16.6818C202.523 16.6818 203.407 16.6818 204.355 16.6818C204.396 15.3931 204.347 14.153 204.379 12.8562C205.595 12.6698 206.803 12.5644 208.067 12.4428C208.1 12.9453 208.084 13.3992 208.084 13.8531C208.084 14.2989 208.084 14.7447 208.084 15.1986C208.084 15.6606 208.084 16.1226 208.084 16.6413C208.546 16.6737 208.983 16.6575 209.429 16.6575C209.891 16.6575 210.353 16.6575 210.815 16.6575C211.261 16.6575 211.707 16.6575 212.177 16.6575C212.177 17.7436 212.177 18.7892 212.177 19.8834C210.799 19.8834 209.453 19.8834 208.075 19.8834C208.067 20.086 208.051 20.24 208.051 20.3859C208.051 22.2825 208.043 24.1791 208.051 26.0838C208.051 26.4972 208.051 26.9106 208.213 27.3077C208.505 28.021 209.048 28.3371 209.778 28.41C210.312 28.4667 210.815 28.3127 211.309 28.1425C211.447 28.0939 211.593 28.0534 211.78 27.9885C212.12 29.0341 212.444 30.0392 212.785 31.0847C212.663 31.1415 212.55 31.2144 212.428 31.263C211.123 31.7412 209.786 31.8304 208.416 31.6764C207.014 31.5143 205.928 30.8335 205.166 29.6501C204.793 29.0746 204.582 28.4181 204.485 27.7535C204.396 27.1456 204.371 26.5215 204.363 25.9055C204.347 24.0818 204.355 22.2663 204.355 20.4426C204.371 20.2886 204.371 20.1184 204.371 19.8834Z" fill="#0282A6"/>
<path d="M192.894 31.5712C191.638 31.5712 190.438 31.5712 189.247 31.5712C189.158 31.2145 189.125 17.3466 189.206 16.7144C189.539 16.6252 191.759 16.5928 192.602 16.6739C192.691 17.1683 192.781 17.6708 192.878 18.2625C193.032 18.0842 193.129 17.9788 193.218 17.8653C194.021 16.8035 195.115 16.3415 196.412 16.2686C197.392 16.2119 198.349 16.2848 199.281 16.6414C199.873 16.8684 200.521 17.2412 200.934 17.7032C200.391 18.7407 199.84 19.8025 199.281 20.8561C199.014 20.6859 198.787 20.5238 198.543 20.4022C197.125 19.6647 195.715 19.77 194.353 20.5319C193.68 20.9129 193.307 21.5613 193.081 22.2826C192.935 22.7446 192.886 23.2147 192.886 23.6929C192.894 26.1326 192.886 28.5723 192.886 31.0038C192.894 31.1821 192.894 31.3442 192.894 31.5712Z" fill="#0282A6"/>
<path d="M45.6961 25.6381C45.6718 28.0697 45.4286 29.9096 44.9099 31.717C44.2615 33.9622 43.2321 36.0047 41.838 37.877C41.4733 38.3633 40.987 38.5983 40.3872 38.4768C39.8117 38.3633 39.4227 38.0067 39.2444 37.4474C39.0985 36.9692 39.2282 36.5477 39.4956 36.1425C39.9495 35.4616 40.4196 34.797 40.8006 34.0837C41.5462 32.714 42.065 31.255 42.4054 29.7232C42.7863 27.9968 42.8674 26.2622 42.6891 24.5277C42.3892 21.5612 41.3517 18.8541 39.5767 16.4469C38.904 15.5391 39.2282 14.4368 40.2494 14.0883C40.8087 13.9018 41.4247 14.0883 41.8218 14.5827C42.6404 15.612 43.2726 16.7549 43.8481 17.9301C44.5857 19.4458 45.0882 21.0506 45.3638 22.7122C45.5583 23.855 45.6312 25.0303 45.6961 25.6381Z" fill="#0282A6"/>
<path d="M130.128 31.571C128.904 31.571 127.704 31.571 126.48 31.571C126.48 26.5863 126.48 21.6259 126.48 16.6007C127.688 16.5683 128.896 16.5926 130.128 16.5845C130.128 21.5935 130.128 26.5539 130.128 31.571Z" fill="#47BCCA"/>
<path d="M243.138 28.491C241.088 28.491 239.102 28.491 237.084 28.491C237.132 29.1232 237.473 29.5204 237.959 29.796C238.672 30.1931 239.442 30.2255 240.204 30.0148C240.642 29.8932 241.055 29.6744 241.517 29.4799C241.849 29.8365 242.23 30.2336 242.636 30.6632C242.409 30.9793 242.036 31.1982 241.655 31.3765C240.309 32.0006 238.923 32.0897 237.521 31.5872C236.451 31.2063 235.706 30.4768 235.333 29.415C234.903 28.1911 234.903 26.9592 235.479 25.7677C236.054 24.5762 237.051 23.944 238.324 23.7009C239.11 23.5469 239.888 23.6036 240.658 23.8306C241.971 24.2196 242.725 25.1193 243.057 26.408C243.203 27.0726 243.162 27.7535 243.138 28.491ZM237.116 26.8295C238.518 26.8295 239.872 26.8295 241.241 26.8295C241.193 26.2621 240.917 25.865 240.447 25.6299C239.596 25.2084 238.745 25.2409 237.926 25.711C237.513 25.946 237.221 26.3026 237.116 26.8295Z" fill="#47BCCA"/>
<path d="M227.049 23.8792C227.836 23.8792 228.549 23.8792 229.343 23.8792C229.87 25.7677 230.405 27.6724 230.932 29.5528C231.426 27.6886 231.921 25.792 232.431 23.8792C233.136 23.8792 233.809 23.8792 234.555 23.8792C233.744 26.5053 232.918 29.0908 232.091 31.7088C231.313 31.7088 230.543 31.7088 229.716 31.7088C228.841 29.1313 227.957 26.5296 227.049 23.8792Z" fill="#47BCCA"/>
<path d="M219.293 20.7506C219.957 20.7506 220.541 20.7506 221.181 20.7506C221.181 20.937 221.181 21.0991 221.181 21.2612C221.181 23.8063 221.181 26.3594 221.181 28.9044C221.181 28.9855 221.181 29.0584 221.181 29.1395C221.149 30.0229 221.514 30.2823 222.251 30.1769C222.292 30.1688 222.34 30.185 222.405 30.1931C222.421 30.2661 222.446 30.339 222.446 30.412C222.446 30.7848 222.446 31.1496 222.446 31.5386C221.643 31.8304 220.873 31.8466 220.136 31.4576C219.633 31.1901 219.39 30.7281 219.325 30.1769C219.301 29.9662 219.301 29.7474 219.301 29.5285C219.301 26.7647 219.301 24.0008 219.301 21.2369C219.293 21.091 219.293 20.937 219.293 20.7506Z" fill="#47BCCA"/>
<path d="M226.117 31.6602C225.469 31.6602 224.853 31.6602 224.245 31.6602C224.148 31.3198 224.124 24.406 224.221 23.8711C224.837 23.8711 225.461 23.8711 226.117 23.8711C226.117 26.4648 226.117 29.0341 226.117 31.6602Z" fill="#47BCCA"/>
<path d="M126.132 12.4672C126.091 11.0812 127.056 10.2869 128.28 10.2788C129.577 10.2626 130.484 11.0812 130.509 12.4105C130.533 13.61 129.69 14.5827 128.345 14.607C127.186 14.6151 126.108 13.837 126.132 12.4672Z" fill="#47BCCA"/>
<path d="M225.169 22.7851C224.456 22.7851 224.026 22.3798 224.018 21.699C224.01 21.0101 224.488 20.54 225.177 20.5481C225.834 20.5562 226.32 21.0344 226.32 21.6828C226.32 22.3393 225.866 22.777 225.169 22.7851Z" fill="#47BCCA"/>
<path d="M217.688 30.5416C217.688 31.1576 217.194 31.652 216.561 31.652C215.921 31.6601 215.419 31.1495 215.427 30.5011C215.435 29.8689 215.921 29.3907 216.545 29.3907C217.202 29.3907 217.696 29.8851 217.688 30.5416Z" fill="#47BCCA"/>
</svg>
