<svg width="260" height="59" viewBox="0 0 260 59" fill="none" xmlns="http://www.w3.org/2000/svg">
<path d="M25.0677 52.2833C25.4741 51.7818 25.8806 51.2975 26.434 50.9516C28.5267 49.6632 31.363 50.6144 32.1845 53.0789C32.8157 54.9813 31.8991 57.0134 30.1783 57.8263C28.3451 58.691 26.0362 58.1549 24.9553 56.0536C24.8169 55.7768 24.6786 55.6904 24.3759 55.6558C23.4507 55.5347 22.5081 55.4223 21.6088 55.1888C20.3376 54.8602 19.0751 54.4797 17.8472 54.0128C15.4346 53.1048 13.2122 51.8423 11.1628 50.2771C9.13065 48.7379 7.3493 46.9566 5.79278 44.9504C4.03737 42.6675 2.66244 40.1684 1.68529 37.4704C1.08862 35.8361 0.656253 34.1498 0.370891 32.4204C0.0422918 30.4142 -0.0701236 28.3907 0.0422919 26.3672C0.111471 25.1047 0.27577 23.8509 0.526543 22.6056C0.837848 21.0751 1.26157 19.5704 1.80635 18.109C2.27331 16.8465 2.86133 15.6359 3.50988 14.4512C5.29988 11.1911 7.66925 8.43263 10.5575 6.1065C12.8404 4.27326 15.3654 2.84645 18.1066 1.80012C19.4556 1.28128 20.8478 0.874854 22.266 0.589491C23.5371 0.330071 24.8256 0.174419 26.1313 0.0706504C27.8176 -0.0677071 29.4952 0.0101191 31.1641 0.191713C32.8936 0.381955 34.5971 0.753791 36.266 1.27263C38.4106 1.93848 40.4427 2.8551 42.3624 4.00519C42.9504 4.35973 43.5298 4.73157 44.0746 5.15529C44.801 5.70872 44.9393 6.65993 44.4551 7.4036C43.9449 8.19916 42.9504 8.43263 42.1203 7.93109C41.3334 7.45548 40.5638 6.94529 39.7682 6.48698C38.5576 5.78655 37.2778 5.21582 35.9461 4.80075C34.8219 4.44621 33.6805 4.12626 32.5217 3.86684C31.7521 3.69389 30.9566 3.60741 30.1696 3.55553C28.5785 3.44312 26.9788 3.43447 25.379 3.59012C22.6897 3.85819 20.1214 4.57592 17.6742 5.71737C13.904 7.47278 10.7823 10.0151 8.29186 13.3443C6.58833 15.6099 5.32582 18.109 4.49568 20.8156C3.99413 22.45 3.69147 24.1276 3.53582 25.8397C3.37152 27.7249 3.44935 29.5927 3.68283 31.4605C3.80389 32.455 4.02872 33.4408 4.29679 34.4006C4.80698 36.2252 5.50741 37.972 6.41539 39.6409C8.20539 42.9096 10.6007 45.6422 13.61 47.8299C15.4173 49.153 17.3975 50.1907 19.4988 50.9776C21.2369 51.6175 23.0183 52.0498 24.8515 52.266C24.938 52.2833 24.9985 52.2833 25.0677 52.2833ZM28.4748 52.6119C27.489 52.5687 26.7626 53.4594 26.7539 54.2809C26.7453 55.2061 27.4976 55.9757 28.4315 55.993C29.3914 56.0103 30.1783 55.2494 30.1783 54.2982C30.1696 53.5804 29.5816 52.5946 28.4748 52.6119Z" fill="white"/>
<path d="M34.4328 39.39C29.2963 42.0015 24.4538 41.6297 19.7842 38.3437C18.8157 38.7501 17.7953 38.7934 16.7836 38.4129C15.9621 38.1016 15.3049 37.5568 14.8466 36.8045C13.9213 35.2739 14.1202 33.3282 15.3741 32.0225C16.6193 30.7254 18.6168 30.4573 20.182 31.3739C21.0727 31.8928 21.6607 32.6537 21.9461 33.6482C22.2228 34.6167 22.119 35.5592 21.7299 36.4672C25.0332 39.0874 30.5156 39.3727 34.4328 36.2164C38.3933 33.0169 39.1111 27.8372 37.6583 24.5079C37.1654 24.5079 36.6725 24.5512 36.1883 24.4993C34.8825 24.3696 33.9054 23.6951 33.2741 22.5623C32.0548 20.3572 33.1011 17.443 35.8424 16.8204C38.4539 16.2324 40.5206 18.2127 40.5984 20.4264C40.6243 21.2219 40.5033 21.9743 40.0623 22.6401C39.9153 22.8649 39.9326 23.0552 40.019 23.28C40.7973 25.2257 41.1086 27.2405 40.8838 29.3245C40.5984 31.9533 39.6645 34.3227 37.935 36.3462C37.494 36.8736 37.0098 37.3665 36.5341 37.894C38.9813 40.8514 41.4285 43.8088 43.9103 46.8181C44.4378 46.3771 44.9567 45.9793 45.4496 45.5469C47.1185 44.0682 48.5367 42.3734 49.73 40.4882C50.9493 38.5599 51.8573 36.4932 52.4712 34.2967C53.2581 31.495 53.5089 28.6327 53.2322 25.7359C53.0506 23.8161 52.6096 21.9483 51.9697 20.1237C51.0703 17.5555 49.7473 15.2293 48.0438 13.1194C47.6373 12.6092 47.4903 12.073 47.7238 11.4245C48.0524 10.4992 49.4706 9.98903 50.3094 11.0008C50.9493 11.7704 51.5373 12.5832 52.0994 13.4134C53.5002 15.4801 54.5206 17.7371 55.2643 20.1151C55.7313 21.6024 56.0166 23.1416 56.2242 24.6895C56.4749 26.6092 56.4922 28.5376 56.3193 30.4573C55.9129 34.8761 54.4774 38.9404 52.0388 42.6501C50.785 44.5525 49.3149 46.2733 47.6114 47.7866C46.8418 48.4697 46.0116 49.0923 45.1901 49.7323C45.0172 49.8706 44.801 49.9657 44.5848 50.0522C43.9363 50.3116 43.3742 50.1214 42.9332 49.6371C42.3798 49.0318 41.8696 48.3833 41.3421 47.752C39.5261 45.5642 37.7102 43.3851 35.8942 41.1973C35.4705 40.6958 35.0555 40.1856 34.6404 39.684C34.5712 39.5803 34.4934 39.4765 34.4328 39.39ZM19.8966 34.7291C19.8966 33.8644 19.2481 33.0429 18.1931 33.0429C17.3111 33.0429 16.5328 33.6655 16.4896 34.7377C16.4464 35.6544 17.2938 36.4499 18.2364 36.4413C19.1703 36.4326 19.9053 35.6803 19.8966 34.7291ZM35.0209 20.6512C35.0209 21.5938 35.7559 22.3288 36.6985 22.3374C37.6324 22.3461 38.3933 21.5938 38.402 20.6599C38.4106 19.7173 37.641 18.9477 36.6898 18.9477C35.7559 18.9563 35.0209 19.7086 35.0209 20.6512Z" fill="white"/>
<path d="M180.642 33.6743C179.345 33.6743 178.065 33.6743 176.725 33.6743C176.716 33.4754 176.707 33.2852 176.707 33.095C176.707 30.7083 176.707 28.3216 176.699 25.9263C176.699 25.3383 176.681 24.7416 176.621 24.1536C176.517 23.2543 176.249 22.3982 175.497 21.8188C174.52 21.0665 173.43 21.0146 172.332 21.5248C171.035 22.1388 170.438 23.2456 170.3 24.6206C170.248 25.1567 170.274 25.7101 170.274 26.2463C170.274 28.5378 170.274 30.8207 170.274 33.1123C170.274 33.2852 170.274 33.4668 170.274 33.657C168.916 33.657 167.628 33.657 166.279 33.657C166.279 33.4322 166.279 33.242 166.279 33.0431C166.279 30.4229 166.27 27.8028 166.279 25.1826C166.287 24.2574 166.123 23.384 165.639 22.5884C164.393 20.539 161.462 20.7552 160.338 22.6576C159.871 23.4445 159.672 24.292 159.681 25.1999C159.689 27.8201 159.681 30.4402 159.681 33.0604C159.681 33.2506 159.681 33.4495 159.681 33.6657C158.323 33.6657 157.026 33.6657 155.712 33.6657C155.712 28.3562 155.712 23.0813 155.712 17.8065C156.083 17.7113 158.669 17.6854 159.361 17.7719C159.447 18.3167 159.542 18.8787 159.646 19.5446C160.113 18.9393 160.563 18.4031 161.194 18.0745C161.843 17.7373 162.534 17.547 163.261 17.4865C163.97 17.426 164.67 17.4692 165.371 17.6335C166.088 17.7978 166.728 18.1264 167.29 18.602C167.844 19.069 168.224 19.657 168.553 20.3488C168.76 20.0894 168.942 19.8472 169.132 19.6224C169.807 18.8355 170.585 18.1956 171.579 17.867C172.237 17.6508 172.92 17.5384 173.62 17.5298C174.796 17.5125 175.946 17.6249 177.045 18.1005C178.662 18.8096 179.647 20.0548 180.184 21.6891C180.512 22.7009 180.65 23.7472 180.65 24.8022C180.659 27.6212 180.65 30.4316 180.65 33.2506C180.668 33.389 180.659 33.5187 180.642 33.6743Z" fill="white"/>
<path d="M95.9758 33.6828C94.6441 33.6828 93.3643 33.6828 92.024 33.6828C92.024 33.4667 92.024 33.2764 92.024 33.0775C92.0153 30.2758 92.0153 27.4741 92.0067 24.681C92.0067 23.9113 91.7991 23.185 91.41 22.5191C90.796 21.4555 89.5422 21.0145 88.3748 21.2826C86.9393 21.6112 86.1005 22.5624 85.7287 23.9632C85.599 24.4475 85.5644 24.9317 85.5644 25.4246C85.573 27.9756 85.5644 30.5266 85.5644 33.0862C85.5644 33.2678 85.5644 33.4407 85.5644 33.6915C84.2586 33.7174 82.9788 33.7001 81.6471 33.7001C81.6385 33.4926 81.6298 33.3197 81.6298 33.1467C81.6298 30.5266 81.6298 27.9064 81.6298 25.2949C81.6298 24.4475 81.4828 23.626 81.0937 22.865C79.9263 20.5389 76.8824 20.7724 75.7583 22.5278C75.274 23.2801 74.98 24.0843 74.98 24.9836C74.98 27.6643 74.9714 30.3536 74.9714 33.0343C74.9714 33.2332 74.9714 33.4234 74.9714 33.6137C74.5995 33.7347 71.9189 33.778 71.0714 33.6828C70.9763 33.3283 70.9417 18.4376 71.0455 17.7804C72.2302 17.7804 73.4235 17.7804 74.6601 17.7804C74.7552 18.3511 74.8503 18.9045 74.9541 19.579C76.1474 17.815 77.8164 17.3912 79.6842 17.5037C81.6039 17.6247 82.9961 18.55 83.8609 20.3486C83.9819 20.193 84.077 20.0892 84.1635 19.9855C84.8726 19.0515 85.72 18.2906 86.8442 17.9014C87.5273 17.6593 88.2451 17.5555 88.9801 17.5469C90.1388 17.5383 91.2716 17.642 92.3526 18.1176C93.935 18.8094 94.9035 20.02 95.4656 21.6112C95.8547 22.7094 95.9758 23.8595 95.9931 25.0096C96.0277 27.7594 96.0017 30.5093 96.0017 33.2591C96.0017 33.3802 95.9844 33.5099 95.9758 33.6828Z" fill="white"/>
<path d="M128.81 19.6655C128.81 16.8206 128.81 13.9929 128.81 11.1306C130.159 11.1306 131.447 11.1306 132.77 11.1306C132.77 18.6538 132.77 26.151 132.77 33.6829C131.551 33.6829 130.349 33.6829 129.095 33.6829C129.017 33.0257 128.94 32.3771 128.853 31.6594C128.732 31.7459 128.637 31.7978 128.576 31.8756C127.945 32.7403 127.098 33.3197 126.103 33.6742C125.446 33.9077 124.763 34.0115 124.071 34.0374C122.273 34.098 120.569 33.778 119.03 32.7922C117.473 31.7891 116.453 30.4055 115.908 28.6328C115.476 27.232 115.432 25.8052 115.571 24.3783C115.709 22.9775 116.116 21.6371 116.954 20.4784C117.958 19.0948 119.272 18.1695 120.924 17.7372C121.736 17.521 122.558 17.374 123.405 17.374C124.858 17.374 126.207 17.7372 127.426 18.5241C127.893 18.8267 128.3 19.2418 128.81 19.6655ZM123.959 30.3709C126.536 30.3969 128.559 28.4858 128.568 25.7619C128.585 23.0121 126.596 21.0664 123.976 21.0664C121.33 21.0578 119.479 22.8564 119.453 25.6754C119.428 28.4685 121.416 30.3969 123.959 30.3709Z" fill="white"/>
<path d="M195.879 19.7606C195.939 19.0688 195.991 18.4462 196.052 17.789C197.305 17.789 198.533 17.789 199.761 17.789C199.856 18.1522 199.882 33.017 199.796 33.631C199.441 33.7347 196.631 33.752 196.086 33.6483C196.034 32.9911 195.974 32.3252 195.905 31.547C195.766 31.694 195.68 31.7804 195.611 31.8669C194.876 32.8268 193.916 33.4407 192.774 33.8039C191.832 34.1066 190.88 34.2363 189.903 34.1585C187.352 33.9423 185.199 32.9824 183.781 30.7341C183.176 29.7742 182.83 28.7279 182.639 27.6124C182.467 26.592 182.423 25.5803 182.536 24.5599C182.717 22.8564 183.253 21.2912 184.404 19.9768C185.381 18.8613 186.591 18.1176 188.027 17.7285C189.039 17.4518 190.059 17.3048 191.097 17.3653C192.947 17.4864 194.556 18.109 195.706 19.6568C195.732 19.6828 195.766 19.6914 195.879 19.7606ZM191.174 30.5439C192.255 30.5612 193.233 30.2671 194.071 29.6013C195.68 28.3215 196.25 25.9435 195.524 23.9546C194.832 22.0608 193.466 21.0145 191.451 20.928C189.549 20.8415 188.018 21.5333 187.041 23.2368C186.635 23.9546 186.479 24.7501 186.462 25.5543C186.436 26.6093 186.635 27.6211 187.231 28.5117C188.165 29.9212 189.531 30.5093 191.174 30.5439Z" fill="white"/>
<path d="M114.516 27.1368C112.406 27.1368 110.348 27.1368 108.299 27.1368C106.241 27.1368 104.182 27.1368 102.09 27.1368C102.098 27.6556 102.289 28.0793 102.522 28.4858C103.093 29.4543 103.975 29.999 105.021 30.2844C106.785 30.76 108.48 30.4919 110.106 29.705C110.443 29.5407 110.737 29.2986 111.109 29.0565C111.913 29.852 112.743 30.6649 113.582 31.495C113.504 31.5902 113.452 31.668 113.383 31.7285C112.181 32.8094 110.78 33.4666 109.207 33.8212C107.719 34.1498 106.232 34.1844 104.745 33.9509C102.98 33.6655 101.407 32.9391 100.153 31.642C99.3053 30.7687 98.7173 29.7223 98.3714 28.5549C97.9909 27.2665 97.8526 25.9434 97.9996 24.6031C98.1812 23.0033 98.6827 21.5333 99.6945 20.2535C100.672 19.0256 101.917 18.1954 103.421 17.7112C104.978 17.2096 106.569 17.1577 108.16 17.3826C109.968 17.6333 111.567 18.3597 112.769 19.8038C113.461 20.634 113.911 21.5852 114.205 22.6401C114.603 24.1015 114.577 25.5716 114.516 27.1368ZM110.651 23.8508C110.659 23.7384 110.677 23.6692 110.659 23.6087C110.417 22.5018 109.829 21.663 108.757 21.2047C107.564 20.6858 106.336 20.6599 105.09 20.9712C103.741 21.3085 102.799 22.13 102.263 23.4184C102.211 23.5481 102.194 23.6865 102.15 23.8508C105.021 23.8508 107.814 23.8508 110.651 23.8508Z" fill="white"/>
<path d="M61.075 28.0794C61.0837 26.8342 61.0145 25.416 60.7983 24.0152C60.3054 20.8416 59.3802 17.8064 57.9101 14.9441C56.8119 12.8168 55.4975 10.8366 53.9237 9.03795C53.7594 8.85636 53.6037 8.66611 53.4654 8.45858C53.0417 7.81003 53.18 6.89341 53.7853 6.40915C54.4944 5.83843 55.411 6.05461 55.8521 6.53022C57.1837 7.97433 58.3425 9.5395 59.3715 11.2084C60.2881 12.6871 61.101 14.235 61.7495 15.8521C62.3549 17.3567 62.8651 18.9046 63.2628 20.487C63.9373 23.2023 64.2054 25.9608 64.1881 28.7539C64.1795 30.371 64.0324 31.9794 63.773 33.5705C63.3925 35.8447 62.7613 38.0498 61.9138 40.1944C60.8589 42.8837 59.4407 45.3741 57.7285 47.7003C57.2443 48.3574 56.6822 48.9714 56.172 49.6113C55.6013 50.329 54.062 50.3723 53.5951 49.2049C53.353 48.5996 53.4481 48.0202 53.8891 47.5014C54.4079 46.8874 54.9181 46.2648 55.3937 45.6162C57.1059 43.2815 58.4549 40.7651 59.4148 38.0325C59.9682 36.45 60.3746 34.8243 60.6686 33.1727C60.954 31.5297 61.075 29.8954 61.075 28.0794Z" fill="white"/>
<path d="M153.714 19.4408C152.988 20.3055 152.279 21.1356 151.596 21.9485C151.042 21.6285 150.541 21.2827 149.996 21.0232C149.114 20.6082 148.154 20.5649 147.194 20.5995C146.615 20.6255 146.053 20.7033 145.525 20.9627C145.032 21.2048 144.713 21.568 144.695 22.1474C144.687 22.7614 145.015 23.1591 145.534 23.4272C146.131 23.7385 146.779 23.8423 147.436 23.8682C148.457 23.9114 149.469 24.0412 150.463 24.2746C151.406 24.4995 152.27 24.8713 153.023 25.4853C153.957 26.2549 154.363 27.2926 154.467 28.4599C154.709 31.2617 152.876 33.1122 150.645 33.804C149.045 34.2969 147.428 34.2969 145.802 34.1413C143.683 33.9337 141.868 33.043 140.363 31.5211C140.328 31.4865 140.311 31.4433 140.25 31.3568C140.873 30.4575 141.513 29.5409 142.144 28.6242C142.603 28.9442 143.026 29.2814 143.493 29.5495C144.687 30.2413 145.984 30.6564 147.359 30.7688C148.163 30.8293 148.932 30.7256 149.641 30.3018C150.325 29.8954 150.636 29.2469 150.506 28.5724C150.411 28.1054 150.117 27.82 149.702 27.6471C149.036 27.3704 148.344 27.2753 147.635 27.232C146.183 27.1456 144.764 26.8948 143.433 26.2549C142.36 25.7447 141.487 25.0097 141.081 23.8596C140.501 22.2339 140.709 20.7206 141.842 19.3802C142.559 18.5414 143.502 18.0658 144.531 17.7199C146.053 17.2184 147.609 17.1925 149.175 17.3568C150.835 17.5211 152.322 18.135 153.585 19.2505C153.637 19.3111 153.654 19.3629 153.714 19.4408Z" fill="white"/>
<path d="M218.042 21.2134C217.03 21.2134 216.096 21.2134 215.11 21.2134C215.059 20.072 215.093 18.9565 215.093 17.7977C216.07 17.7977 217.013 17.7977 218.025 17.7977C218.068 16.4228 218.016 15.0997 218.051 13.7162C219.348 13.5173 220.636 13.4049 221.985 13.2751C222.02 13.8113 222.002 14.2955 222.002 14.7798C222.002 15.2554 222.002 15.731 222.002 16.2152C222.002 16.7081 222.002 17.201 222.002 17.7545C222.495 17.7891 222.962 17.7718 223.438 17.7718C223.931 17.7718 224.424 17.7718 224.917 17.7718C225.392 17.7718 225.868 17.7718 226.369 17.7718C226.369 18.9305 226.369 20.046 226.369 21.2134C224.899 21.2134 223.464 21.2134 221.994 21.2134C221.985 21.4296 221.968 21.5939 221.968 21.7495C221.968 23.773 221.959 25.7965 221.968 27.8286C221.968 28.2696 221.968 28.7107 222.141 29.1344C222.452 29.8953 223.031 30.2326 223.81 30.3104C224.38 30.3709 224.917 30.2066 225.444 30.0251C225.591 29.9732 225.747 29.9299 225.946 29.8608C226.309 30.9763 226.655 32.0485 227.018 33.164C226.888 33.2246 226.767 33.3024 226.637 33.3543C225.245 33.8645 223.818 33.9596 222.357 33.7953C220.861 33.6223 219.702 32.896 218.889 31.6335C218.492 31.0195 218.267 30.3191 218.163 29.61C218.068 28.9614 218.042 28.2956 218.033 27.6384C218.016 25.6927 218.025 23.7557 218.025 21.8101C218.042 21.6458 218.042 21.4642 218.042 21.2134Z" fill="white"/>
<path d="M205.797 33.683C204.457 33.683 203.177 33.683 201.906 33.683C201.811 33.3025 201.776 18.5069 201.863 17.8324C202.217 17.7373 204.587 17.7027 205.486 17.7892C205.581 18.3166 205.676 18.8528 205.78 19.484C205.944 19.2938 206.048 19.1814 206.143 19.0603C206.999 17.9275 208.167 17.4346 209.55 17.3568C210.597 17.2963 211.617 17.3741 212.611 17.7546C213.243 17.9967 213.934 18.3945 214.376 18.8874C213.796 19.9942 213.208 21.127 212.611 22.2512C212.326 22.0696 212.084 21.8966 211.825 21.7669C210.311 20.98 208.807 21.0924 207.354 21.9053C206.636 22.3117 206.238 23.0035 205.996 23.7731C205.841 24.266 205.789 24.7676 205.789 25.2778C205.797 27.8806 205.789 30.4835 205.789 33.0777C205.797 33.2679 205.797 33.4408 205.797 33.683Z" fill="white"/>
<path d="M48.7527 27.353C48.7267 29.9472 48.4673 31.9102 47.9139 33.8385C47.2221 36.2338 46.1239 38.413 44.6366 40.4105C44.2474 40.9293 43.7286 41.1801 43.0887 41.0504C42.4747 40.9293 42.0597 40.5489 41.8694 39.9522C41.7138 39.442 41.8521 38.9923 42.1375 38.56C42.6217 37.8336 43.1233 37.1245 43.5297 36.3635C44.3253 34.9021 44.8787 33.3456 45.2419 31.7113C45.6483 29.8694 45.7348 28.0189 45.5445 26.1683C45.2246 23.0034 44.1177 20.1152 42.2239 17.5469C41.5062 16.5784 41.8521 15.4024 42.9417 15.0305C43.5383 14.8316 44.1955 15.0305 44.6193 15.558C45.4926 16.6562 46.1671 17.8755 46.7811 19.1294C47.568 20.7464 48.1041 22.4586 48.3982 24.2313C48.6057 25.4506 48.6835 26.7045 48.7527 27.353Z" fill="white"/>
<path d="M138.832 33.6829C137.526 33.6829 136.247 33.6829 134.941 33.6829C134.941 28.3648 134.941 23.0726 134.941 17.7112C136.229 17.6766 137.518 17.7026 138.832 17.6939C138.832 23.038 138.832 28.3302 138.832 33.6829Z" fill="white"/>
<path d="M259.402 30.3967C257.214 30.3967 255.095 30.3967 252.942 30.3967C252.994 31.0712 253.357 31.4949 253.876 31.7889C254.637 32.2126 255.459 32.2472 256.272 32.0224C256.738 31.8927 257.18 31.6592 257.672 31.4517C258.027 31.8322 258.433 32.2559 258.866 32.7142C258.624 33.0514 258.226 33.2849 257.819 33.4752C256.384 34.141 254.905 34.2361 253.409 33.7C252.268 33.2936 251.472 32.5153 251.074 31.3825C250.616 30.0767 250.616 28.7624 251.23 27.4912C251.844 26.22 252.908 25.5455 254.265 25.2861C255.104 25.1218 255.934 25.1824 256.756 25.4245C258.157 25.8396 258.961 26.7994 259.315 28.1743C259.471 28.8834 259.428 29.6098 259.402 30.3967ZM252.977 28.624C254.473 28.624 255.917 28.624 257.378 28.624C257.327 28.0187 257.032 27.595 256.531 27.3442C255.623 26.8945 254.715 26.9291 253.842 27.4307C253.401 27.6814 253.089 28.0619 252.977 28.624Z" fill="white"/>
<path d="M242.237 25.4766C243.076 25.4766 243.837 25.4766 244.684 25.4766C245.246 27.4914 245.817 29.5235 246.379 31.5297C246.907 29.5408 247.434 27.5173 247.979 25.4766C248.731 25.4766 249.449 25.4766 250.244 25.4766C249.38 28.2783 248.498 31.0368 247.616 33.8299C246.786 33.8299 245.964 33.8299 245.082 33.8299C244.148 31.08 243.206 28.3042 242.237 25.4766Z" fill="white"/>
<path d="M233.962 22.1387C234.671 22.1387 235.293 22.1387 235.977 22.1387C235.977 22.3376 235.977 22.5105 235.977 22.6835C235.977 25.3987 235.977 28.1226 235.977 30.8379C235.977 30.9244 235.977 31.0022 235.977 31.0887C235.942 32.0312 236.331 32.308 237.118 32.1955C237.161 32.1869 237.213 32.2042 237.282 32.2128C237.3 32.2907 237.326 32.3685 237.326 32.4463C237.326 32.8441 237.326 33.2332 237.326 33.6483C236.47 33.9596 235.648 33.9769 234.861 33.5618C234.325 33.2765 234.066 32.7836 233.996 32.1955C233.97 31.9707 233.97 31.7372 233.97 31.5037C233.97 28.555 233.97 25.6063 233.97 22.6575C233.962 22.5019 233.962 22.3376 233.962 22.1387Z" fill="white"/>
<path d="M241.243 33.7779C240.551 33.7779 239.894 33.7779 239.245 33.7779C239.141 33.4147 239.115 26.0385 239.219 25.4678C239.876 25.4678 240.542 25.4678 241.243 25.4678C241.243 28.2349 241.243 30.9761 241.243 33.7779Z" fill="white"/>
<path d="M134.569 13.3011C134.526 11.8224 135.555 10.975 136.861 10.9663C138.244 10.949 139.213 11.8224 139.239 13.2406C139.265 14.5204 138.365 15.5581 136.93 15.584C135.693 15.5926 134.543 14.7625 134.569 13.3011Z" fill="white"/>
<path d="M240.231 24.3091C239.47 24.3091 239.012 23.8768 239.003 23.1504C238.994 22.4154 239.505 21.9138 240.24 21.9225C240.94 21.9311 241.459 22.4413 241.459 23.1331C241.459 23.8335 240.975 24.3005 240.231 24.3091Z" fill="white"/>
<path d="M232.249 32.5846C232.249 33.2418 231.722 33.7693 231.047 33.7693C230.364 33.7779 229.828 33.2331 229.837 32.5414C229.845 31.8669 230.364 31.3567 231.03 31.3567C231.731 31.3567 232.258 31.8842 232.249 32.5846Z" fill="white"/>
</svg>
