<svg width="124" height="124" viewBox="0 0 124 124" fill="none" xmlns="http://www.w3.org/2000/svg">
<circle cx="62" cy="62" r="62" fill="#47BCCA"/>
<path d="M87.4688 43H78.25V37.5C78.25 34.4635 75.7725 32 72.7188 32H54.2812C51.2275 32 48.75 34.4635 48.75 37.5V43H39.5312C36.4775 43 34 45.4635 34 48.5V81.5C34 84.5365 36.4775 87 39.5312 87H87.4688C90.5225 87 93 84.5365 93 81.5V48.5C93 45.4635 90.5225 43 87.4688 43ZM56.125 39.3333H70.875V43H56.125V39.3333ZM74.5625 67.75C74.5625 68.2542 74.1477 68.6667 73.6406 68.6667H67.1875V75.0833C67.1875 75.5875 66.7727 76 66.2656 76H60.7344C60.2273 76 59.8125 75.5875 59.8125 75.0833V68.6667H53.3594C52.8523 68.6667 52.4375 68.2542 52.4375 67.75V62.25C52.4375 61.7458 52.8523 61.3333 53.3594 61.3333H59.8125V54.9167C59.8125 54.4125 60.2273 54 60.7344 54H66.2656C66.7727 54 67.1875 54.4125 67.1875 54.9167V61.3333H73.6406C74.1477 61.3333 74.5625 61.7458 74.5625 62.25V67.75Z" fill="white"/>
</svg>
