<svg width="60" height="69" viewBox="0 0 60 69" fill="none" xmlns="http://www.w3.org/2000/svg">
<path d="M29.9123 34.4276C39.2414 34.4276 46.9711 26.7841 46.9711 17.2633C46.9711 7.87656 39.2414 0.098999 29.9123 0.098999C20.4499 0.098999 12.8534 7.87656 12.8534 17.2633C12.8534 26.7841 20.4499 34.4276 29.9123 34.4276ZM29.9123 4.39007C36.8424 4.39007 42.7064 10.2903 42.7064 17.2633C42.7064 24.3703 36.8424 30.1365 29.9123 30.1365C22.8488 30.1365 17.1181 24.3703 17.1181 17.2633C17.1181 10.2903 22.8488 4.39007 29.9123 4.39007ZM42.3066 38.8527C37.7754 38.7186 36.4426 40.8642 29.9123 40.8642C23.2487 40.8642 21.9159 38.7186 17.3846 38.8527C7.78897 39.1209 0.0592041 47.0326 0.0592041 56.8216V67.6833C0.0592041 68.3538 0.459045 68.7561 1.12538 68.7561H3.25775C3.79084 68.7561 4.32393 68.3538 4.32393 67.6833V56.8216C4.32393 49.5804 9.92133 43.5461 17.1181 43.1438V54.1397C13.9196 55.0783 11.7872 57.8944 11.7872 61.2467C11.7872 65.4037 15.119 68.7561 19.2505 68.7561C23.2487 68.7561 26.7137 65.4037 26.7137 61.2467C26.7137 57.8944 24.4481 55.0783 21.3828 54.1397V43.8143C24.0483 44.7529 26.9802 45.1552 29.9123 45.1552C32.711 45.1552 35.643 44.7529 38.4417 43.8143V53.0669C34.5768 54.0055 32.0446 57.6261 32.0446 61.6491V65.5378C32.0446 66.2083 32.1779 66.7447 32.5777 67.147L34.0437 68.488C34.4435 68.8902 35.1099 68.8902 35.5097 68.488L36.9757 67.0129C37.3755 66.6106 37.3755 65.9401 36.9757 65.4037L36.1761 64.7332V61.2467C36.1761 58.6989 38.575 56.6875 41.2404 57.0897C43.3728 57.358 44.7055 59.3694 44.7055 61.5149V64.7332L44.0391 65.4037C43.6394 65.9401 43.6394 66.6106 44.0391 67.0129L45.5051 68.488C45.905 68.8902 46.5713 68.8902 46.9711 68.488L48.4372 67.147C48.837 66.7447 48.9703 66.2083 48.9703 65.5378V61.2467C48.9703 57.358 46.3048 54.0055 42.5732 53.0669V43.1438C49.7698 43.6802 55.3673 49.5804 55.3673 56.8216V67.6833C55.3673 68.3538 55.9004 68.7561 56.4335 68.7561H58.5659C59.2322 68.7561 59.6321 68.3538 59.6321 67.6833V56.8216C59.7653 47.0326 52.0356 39.1209 42.3066 38.8527ZM22.449 61.2467C22.449 63.1241 20.983 64.465 19.2505 64.465C17.3846 64.465 16.0519 63.1241 16.0519 61.2467C16.0519 59.5035 17.3846 58.0284 19.2505 58.0284C20.983 58.0284 22.449 59.5035 22.449 61.2467Z" fill="white"/>
</svg>
