<svg width="46" height="52" viewBox="0 0 46 52" fill="none" xmlns="http://www.w3.org/2000/svg">
<path d="M36.0256 13.1016C38.6921 13.5759 40.8791 14.9977 42.5887 17.3672C44.0929 19.4665 45.1187 22.1071 45.6649 25.2891C46.1444 28.2009 46.1085 31.1116 45.5622 34.0234C44.7419 38.8304 43.1011 42.8594 40.6399 46.1094C37.6992 50.0368 34.008 52 29.5641 52C28.4696 52 27.2744 51.6618 25.9746 50.9844C25.0854 50.443 24.0945 50.1719 23 50.1719C21.9055 50.1719 20.9157 50.443 20.0254 50.9844C18.7256 51.6618 17.5304 52 16.4359 52C11.992 52 8.30076 50.0368 5.36009 46.1094C2.89892 42.8594 1.25814 38.8304 0.437748 34.0234C-0.108494 31.1116 -0.144431 28.2009 0.335071 25.2891C0.881313 22.1071 1.90706 19.4665 3.41127 17.3672C5.12085 14.9977 7.30787 13.5759 9.97439 13.1016C11.6152 12.8304 13.871 13.068 16.7429 13.8125C19.204 14.4899 21.2894 15.3024 22.999 16.25C24.7085 15.3024 26.7939 14.4899 29.2551 13.8125C32.128 13.068 34.3848 12.8304 36.0256 13.1016ZM30.3845 8.9375C29.4276 9.81805 28.1616 10.4609 26.5896 10.8672C25.4951 11.2054 24.2999 11.375 23 11.375L21.4619 11.2734C21.3253 10.3259 21.3253 9.24219 21.4619 8.02344C21.736 5.58594 22.5215 3.7243 23.8204 2.4375C24.7773 1.55695 26.0433 0.914062 27.6153 0.507812C28.7099 0.169609 29.905 0 31.2049 0L32.743 0.101562L32.8457 1.625C32.8457 2.9118 32.6742 4.09602 32.3333 5.17969C31.9237 6.73664 31.2747 7.98992 30.3845 8.9375Z" fill="white"/>
</svg>
