<svg width="62" height="54" viewBox="0 0 62 54" fill="none" xmlns="http://www.w3.org/2000/svg">
<path d="M31 0C13.8798 0 0 11.2243 0 25.0714C0 31.0452 2.59262 36.5223 6.90234 40.8303C5.38383 46.8944 0.326953 52.3125 0.266406 52.3728C0.136299 52.5096 0.0492934 52.6813 0.0161338 52.8668C-0.0170258 53.0522 0.00511307 53.2433 0.0798164 53.4164C0.15452 53.5894 0.278516 53.7369 0.436491 53.8407C0.594467 53.9444 0.779504 53.9998 0.96875 54C8.99242 54 15.0156 50.173 17.9945 47.8069C22.1531 49.3584 26.5589 50.1497 31 50.1429C48.1214 50.1429 62 38.9186 62 25.0714C62 11.2243 48.1214 0 31 0ZM42.625 27.9643C42.625 28.22 42.5229 28.4653 42.3413 28.6461C42.1596 28.827 41.9132 28.9286 41.6562 28.9286H34.875V35.6786C34.875 35.9343 34.7729 36.1796 34.5913 36.3604C34.4096 36.5413 34.1632 36.6429 33.9062 36.6429H28.0938C27.8368 36.6429 27.5904 36.5413 27.4087 36.3604C27.2271 36.1796 27.125 35.9343 27.125 35.6786V28.9286H20.3438C20.0868 28.9286 19.8404 28.827 19.6587 28.6461C19.4771 28.4653 19.375 28.22 19.375 27.9643V22.1786C19.375 21.9228 19.4771 21.6776 19.6587 21.4967C19.8404 21.3159 20.0868 21.2143 20.3438 21.2143H27.125V14.4643C27.125 14.2085 27.2271 13.9633 27.4087 13.7824C27.5904 13.6016 27.8368 13.5 28.0938 13.5H33.9062C34.1632 13.5 34.4096 13.6016 34.5913 13.7824C34.7729 13.9633 34.875 14.2085 34.875 14.4643V21.2143H41.6562C41.9132 21.2143 42.1596 21.3159 42.3413 21.4967C42.5229 21.6776 42.625 21.9228 42.625 22.1786V27.9643Z" fill="white"/>
</svg>
