<svg width="67" height="67" viewBox="0 0 67 67" fill="none" xmlns="http://www.w3.org/2000/svg">
<g filter="url(#filter0_d_573_452)">
<circle cx="33.5" cy="29.5" r="29.5" fill="white"/>
</g>
<path d="M33 14.9032C41.3434 14.9032 48.0968 21.6553 48.0968 30C48.0968 38.3434 41.3447 45.0968 33 45.0968C24.6566 45.0968 17.9032 38.3447 17.9032 30C17.9032 21.6566 24.6553 14.9032 33 14.9032ZM33 12C23.0588 12 15 20.0588 15 30C15 39.9412 23.0588 48 33 48C42.9412 48 51 39.9412 51 30C51 20.0588 42.9412 12 33 12ZM33 16.0645C25.3036 16.0645 19.0645 22.3036 19.0645 30C19.0645 37.6964 25.3036 43.9355 33 43.9355C40.6964 43.9355 46.9355 37.6964 46.9355 30C46.9355 22.3036 40.6964 16.0645 33 16.0645ZM33 19.2581C34.443 19.2581 35.6129 20.4279 35.6129 21.871C35.6129 23.314 34.443 24.4839 33 24.4839C31.557 24.4839 30.3871 23.314 30.3871 21.871C30.3871 20.4279 31.557 19.2581 33 19.2581ZM41.5457 26.3726C39.4618 26.8647 37.5167 27.2979 35.5839 27.5199C35.6457 34.8522 36.4771 36.4511 37.4011 38.815C37.6637 39.4871 37.3317 40.2447 36.6596 40.5072C35.9874 40.7697 35.2298 40.4377 34.9673 39.7657C34.3355 38.1465 33.7272 36.8163 33.3516 34.0645H32.6486C32.2735 36.8118 31.6663 38.1441 31.0328 39.7657C30.7704 40.4374 30.013 40.7699 29.3406 40.5072C28.6685 40.2447 28.3365 39.487 28.599 38.815C29.5217 36.4531 30.3544 34.8564 30.4162 27.5199C28.4835 27.298 26.5384 26.8647 24.4544 26.3726C23.8302 26.2252 23.4436 25.5998 23.591 24.9755C23.7384 24.3513 24.3638 23.9648 24.9881 24.1122C32.0056 25.7691 34.0087 25.7658 41.0121 24.1122C41.6362 23.9648 42.2618 24.3513 42.4092 24.9755C42.5565 25.5998 42.1699 26.2253 41.5457 26.3726V26.3726Z" fill="#47BCCA"/>
<defs>
<filter id="filter0_d_573_452" x="0" y="0" width="67" height="67" filterUnits="userSpaceOnUse" color-interpolation-filters="sRGB">
<feFlood flood-opacity="0" result="BackgroundImageFix"/>
<feColorMatrix in="SourceAlpha" type="matrix" values="0 0 0 0 0 0 0 0 0 0 0 0 0 0 0 0 0 0 127 0" result="hardAlpha"/>
<feOffset dy="4"/>
<feGaussianBlur stdDeviation="2"/>
<feComposite in2="hardAlpha" operator="out"/>
<feColorMatrix type="matrix" values="0 0 0 0 0 0 0 0 0 0 0 0 0 0 0 0 0 0 0.25 0"/>
<feBlend mode="normal" in2="BackgroundImageFix" result="effect1_dropShadow_573_452"/>
<feBlend mode="normal" in="SourceGraphic" in2="effect1_dropShadow_573_452" result="shape"/>
</filter>
</defs>
</svg>
