<svg width="67" height="67" viewBox="0 0 67 67" fill="none" xmlns="http://www.w3.org/2000/svg">
<g filter="url(#filter0_d_573_451)">
<circle cx="33.5" cy="29.5" r="29.5" fill="white"/>
</g>
<path d="M29.1424 30.3311C29.5135 30.6973 30.115 30.6973 30.4861 30.3311L31.1576 29.6684C31.5287 29.3021 31.5287 28.7086 31.1576 28.3424L29.0367 26.25L31.157 24.157C31.5281 23.7908 31.5281 23.1973 31.157 22.8311L30.4855 22.1684C30.1144 21.8021 29.5129 21.8021 29.1418 22.1684L25.6779 25.5867C25.3068 25.9529 25.3068 26.5465 25.6779 26.9127L29.1424 30.3311V30.3311ZM34.843 29.6689L35.5145 30.3316C35.8856 30.6979 36.4871 30.6979 36.8582 30.3316L40.3221 26.9133C40.6932 26.5471 40.6932 25.9535 40.3221 25.5873L36.8582 22.1689C36.4871 21.8027 35.8856 21.8027 35.5145 22.1689L34.843 22.8316C34.4719 23.1979 34.4719 23.7914 34.843 24.1576L36.9633 26.25L34.843 28.343C34.4719 28.7092 34.4719 29.3027 34.843 29.6689V29.6689ZM51.05 39.375H36.6539C36.61 40.5357 35.7805 41.25 34.71 41.25H31.1C29.9903 41.25 29.1394 40.2264 29.1543 39.375H14.95C14.4275 39.375 14 39.7969 14 40.3125V41.25C14 43.3125 15.71 45 17.8 45H48.2C50.29 45 52 43.3125 52 41.25V40.3125C52 39.7969 51.5725 39.375 51.05 39.375ZM48.2 17.8125C48.2 16.2656 46.9175 15 45.35 15H20.65C19.0825 15 17.8 16.2656 17.8 17.8125V37.5H48.2V17.8125ZM44.4 33.75H21.6V18.75H44.4V33.75Z" fill="#47BCCA"/>
<defs>
<filter id="filter0_d_573_451" x="0" y="0" width="67" height="67" filterUnits="userSpaceOnUse" color-interpolation-filters="sRGB">
<feFlood flood-opacity="0" result="BackgroundImageFix"/>
<feColorMatrix in="SourceAlpha" type="matrix" values="0 0 0 0 0 0 0 0 0 0 0 0 0 0 0 0 0 0 127 0" result="hardAlpha"/>
<feOffset dy="4"/>
<feGaussianBlur stdDeviation="2"/>
<feComposite in2="hardAlpha" operator="out"/>
<feColorMatrix type="matrix" values="0 0 0 0 0 0 0 0 0 0 0 0 0 0 0 0 0 0 0.25 0"/>
<feBlend mode="normal" in2="BackgroundImageFix" result="effect1_dropShadow_573_451"/>
<feBlend mode="normal" in="SourceGraphic" in2="effect1_dropShadow_573_451" result="shape"/>
</filter>
</defs>
</svg>
