<svg width="69" height="65" viewBox="0 0 69 65" fill="none" xmlns="http://www.w3.org/2000/svg">
<path d="M66.2042 8.58214H57.6617L56.5939 6.70475C56.06 5.36384 54.3248 4.29107 52.8566 4.29107H43.5133L39.9094 0.670475C39.5089 0.268192 38.975 0 38.4411 0C38.4411 0 38.4411 0 38.3077 0C37.2399 0 36.3055 1.07277 36.3055 2.14553V25.7464H21.3562H21.2227C18.6867 25.7464 16.284 26.551 14.282 27.892H10.6781C7.07421 27.892 4.27124 25.076 4.27124 21.4554C4.27124 20.3826 3.20343 19.3098 2.13562 19.3098C0.934357 19.3098 0 20.3826 0 21.4554C0 27.3556 4.53814 32.049 10.2776 32.183C9.20983 34.0604 8.54247 36.34 8.54247 38.6196V60.075C8.54247 62.4887 10.4112 64.3661 12.8137 64.3661H21.3562C23.6253 64.3661 25.6274 62.4887 25.6274 60.075V47.2018H38.4411V60.075C38.4411 62.4887 40.3098 64.3661 42.7124 64.3661H51.2548C53.5239 64.3661 55.5261 62.4887 55.5261 60.075V27.892H59.7973C64.469 27.892 68.3398 24.1373 68.3398 19.3098V10.7277C68.3398 9.65491 67.272 8.58214 66.2042 8.58214ZM51.2548 60.075H42.7124V42.9107H21.3562V60.075H12.8137V38.6196C12.8137 33.9263 16.551 30.1716 21.3562 30.0375H37.1064L51.2548 33.6581V60.075ZM64.0686 19.3098C64.0686 21.7235 62.0664 23.6009 59.7973 23.6009H51.2548V29.2329L40.5767 26.551V7.3753L41.778 8.58214H52.8566L54.9922 12.8732H64.0686V19.3098ZM51.2548 12.8732C51.2548 11.8004 50.187 10.7277 49.1192 10.7277C47.918 10.7277 46.9836 11.8004 46.9836 12.8732C46.9836 14.0801 47.918 15.0187 49.1192 15.0187C50.187 15.0187 51.2548 14.0801 51.2548 12.8732Z" fill="white"/>
</svg>
